<?xml version="1.0" encoding="UTF-8"?>
<svg version="1.1" xmlns="http://www.w3.org/2000/svg" width="423" height="205">
<path d="M0 0 C139.59 0 279.18 0 423 0 C423 67.65 423 135.3 423 205 C283.41 205 143.82 205 0 205 C0 137.35 0 69.7 0 0 Z " fill="#000000" transform="translate(0,0)"/>
<path d="M0 0 C5.00204329 1.50720702 8.10395018 4.4940354 11.8125 8 C12.7087207 8.81984375 12.7087207 8.81984375 13.62304688 9.65625 C15.12630533 11.05814589 16.56870925 12.52470177 18 14 C18 14.66 18 15.32 18 16 C18.66 16 19.32 16 20 16 C22 19 22 19 22 22 C22.66 22 23.32 22 24 22 C25.5078125 23.609375 25.5078125 23.609375 27.125 25.75 C27.66382813 26.44609375 28.20265625 27.1421875 28.7578125 27.859375 C30 30 30 30 30 34 C28.02 34.495 28.02 34.495 26 35 C25.8040625 34.47792969 25.608125 33.95585938 25.40625 33.41796875 C20.68100862 21.78817207 12.79087253 12.6871794 3 5 C2.01 4.67 1.02 4.34 0 4 C-0.66 5.65 -1.32 7.3 -2 9 C-1.41605469 9.27070312 -0.83210938 9.54140625 -0.23046875 9.8203125 C12.41478196 16.50834353 21.52093489 31.66977992 26.375 44.6875 C26.58125 45.450625 26.7875 46.21375 27 47 C29.64 46.67 32.28 46.34 35 46 C38.39936951 54.5723231 39.14735322 61.79860984 39 71 C41.475 70.505 41.475 70.505 44 70 C42.36296203 50.47771139 37.91616583 30.42764252 25 15 C24.01 14.67 23.02 14.34 22 14 C21.3125 11.9375 21.3125 11.9375 21 10 C22.65 9.67 24.3 9.34 26 9 C36.56608274 25.94366979 45.98718607 41.45129917 46.6875 61.875 C46.73455078 62.93203125 46.78160156 63.9890625 46.83007812 65.078125 C47.0551559 70.81945312 47.0551559 70.81945312 47 73 C46 74 46 74 42.4375 74.0625 C41.303125 74.041875 40.16875 74.02125 39 74 C39.04640625 74.53625 39.0928125 75.0725 39.140625 75.625 C39.72449807 88.30338657 34.84175675 101.06603223 31 113 C29.35 112.67 27.7 112.34 26 112 C26 110.68 26 109.36 26 108 C26.44085938 107.58363281 26.88171875 107.16726562 27.3359375 106.73828125 C29.9091609 104.05028967 30.59930587 100.67929205 31.625 97.1875 C31.8415625 96.48818359 32.058125 95.78886719 32.28125 95.06835938 C34.60743701 87.39337815 35.18209805 80.24488087 35.1875 72.25 C35.20586914 70.84234375 35.20586914 70.84234375 35.22460938 69.40625 C35.23767545 63.0996908 34.70492431 57.09520284 33 51 C32.67 50.67 32.34 50.34 32 50 C29.96551221 50.41740567 27.94598322 50.90895178 25.9375 51.4375 C24.83277344 51.72496094 23.72804688 52.01242188 22.58984375 52.30859375 C21.30787109 52.65083984 21.30787109 52.65083984 20 53 C20.14002441 53.54454834 20.28004883 54.08909668 20.42431641 54.65014648 C21.76148976 60.17913958 22.38692368 65.37907603 22.375 71.0625 C22.37338867 71.87887939 22.37177734 72.69525879 22.37011719 73.53637695 C22.14794452 84.7702547 19.46601592 95.16117135 14 105 C13.29094062 106.98536627 12.60578253 108.98072489 12 111 C10.35 110.67 8.7 110.34 7 110 C7.63301375 106.32852027 7.63301375 106.32852027 9.37890625 104.765625 C11.64181442 102.30096357 12.46804547 99.68911639 13.625 96.5625 C14.05039062 95.42941406 14.47578125 94.29632813 14.9140625 93.12890625 C16.64193185 88.15040499 17.10216429 84.31254326 17 79 C15.68 78.67 14.36 78.34 13 78 C12.95101563 78.98742187 12.90203125 79.97484375 12.8515625 80.9921875 C12.77679688 82.27351563 12.70203125 83.55484375 12.625 84.875 C12.55539062 86.15117188 12.48578125 87.42734375 12.4140625 88.7421875 C12 92 12 92 10 94 C7.875 93.625 7.875 93.625 6 93 C6 91.68 6 90.36 6 89 C6.66 89 7.32 89 8 89 C8.80207798 83.37272277 9.15526935 77.93054735 9.125 72.25 C9.12886719 71.50878906 9.13273437 70.76757812 9.13671875 70.00390625 C9.13042371 66.49756967 8.94165121 63.37199035 8 60 C9.32 59.34 10.64 58.68 12 58 C14.25998595 61.59462331 14.20868087 64.56595675 14.125 68.75 C14.10695313 69.92046875 14.08890625 71.0909375 14.0703125 72.296875 C14.04710937 73.18890625 14.02390625 74.0809375 14 75 C15.65 75 17.3 75 19 75 C17.63833485 63.04346083 16.20334948 51.97340038 11 41 C10.52240234 39.90365234 10.52240234 39.90365234 10.03515625 38.78515625 C8.98472204 36.67092867 8.98472204 36.67092867 6 35 C6.33 33.68 6.66 32.36 7 31 C8.87988281 31.29541016 8.87988281 31.29541016 11 32 C12.4500783 34.46984881 13.62021639 36.76631509 14.75 39.375 C15.06582031 40.06078125 15.38164062 40.7465625 15.70703125 41.453125 C17.05486384 44.45219839 18 46.67828502 18 50 C20.475 49.505 20.475 49.505 23 49 C19.82240255 39.9349758 16.64253668 32.52537709 10.5234375 25.05078125 C9 23 9 23 8 20 C7.34 20 6.68 20 6 20 C6 19.34 6 18.68 6 18 C5.34 18 4.68 18 4 18 C4 17.34 4 16.68 4 16 C3.46375 15.773125 2.9275 15.54625 2.375 15.3125 C-0.78500863 13.56617944 -3.2676983 11.3597151 -6 9 C-2.25 2.25 -2.25 2.25 0 0 Z " fill="#1F8297" transform="translate(369,29)"/>
<path d="M0 0 C11.22 0 22.44 0 34 0 C35 2 35 2 34.21484375 4.36328125 C33.79332031 5.33652344 33.37179688 6.30976562 32.9375 7.3125 C32.53402344 8.25738281 32.13054687 9.20226562 31.71484375 10.17578125 C30.25769508 13.4679446 28.73334724 16.72795373 27.21484375 19.9921875 C23.87634015 27.20696447 20.73783954 34.49856915 17.625 41.8125 C17.07439183 43.10228745 16.5236113 44.39200132 15.97265625 45.68164062 C14.64675267 48.78704638 13.32256073 51.89316945 12 55 C14.10797753 54.60306272 16.21136777 54.18170804 18.3125 53.75 C20.07013672 53.40195313 20.07013672 53.40195313 21.86328125 53.046875 C25.30711925 51.89749943 26.26644481 51.11632039 28 48 C28.98689197 45.42967443 28.98689197 45.42967443 29.6875 42.75 C29.93886719 41.85796875 30.19023437 40.9659375 30.44921875 40.046875 C30.63097656 39.37140625 30.81273437 38.6959375 31 38 C31.99 38 32.98 38 34 38 C34.02888514 41.14581423 34.04675923 44.29159469 34.0625 47.4375 C34.07087891 48.33533203 34.07925781 49.23316406 34.08789062 50.15820312 C34.09111328 51.01220703 34.09433594 51.86621094 34.09765625 52.74609375 C34.10289307 53.53685303 34.10812988 54.3276123 34.11352539 55.14233398 C34 57 34 57 33 58 C30.3337397 58.08855161 27.69352886 58.11524673 25.02734375 58.09765625 C24.22970108 58.0962413 23.43205841 58.09482635 22.61024475 58.09336853 C20.05262565 58.08775316 17.49509282 58.07519812 14.9375 58.0625 C13.20768355 58.05748698 11.47786574 58.05292373 9.74804688 58.04882812 C5.49866447 58.03777875 1.24934688 58.02050386 -3 58 C-2.49581611 51.55451763 -0.22620898 46.38902115 2.4375 40.54296875 C2.87763428 39.55879471 3.31776855 38.57462067 3.77124023 37.56062317 C5.17256751 34.4324631 6.5861258 31.31000605 8 28.1875 C8.95132242 26.0687191 9.90185196 23.94958202 10.8515625 21.83007812 C17.55768226 6.88463548 17.55768226 6.88463548 19 4 C12.11322004 3.51155607 12.11322004 3.51155607 6 6 C4.66136598 9.26022156 3.77904132 12.56715126 3 16 C2.01 16 1.02 16 0 16 C0 10.72 0 5.44 0 0 Z " fill="#F4F4F4" transform="translate(207,62)"/>
<path d="M0 0 C0.66 0.33 1.32 0.66 2 1 C2.33 1.99 2.66 2.98 3 4 C3.804375 3.484375 4.60875 2.96875 5.4375 2.4375 C9.94601655 0.61827403 13.35979682 0.54442296 18 2 C21.00571919 4.78029025 22.26679217 7.0426746 23 11 C23.08120233 13.0976396 23.10755808 15.19768762 23.09765625 17.296875 C23.09443359 18.50214844 23.09121094 19.70742187 23.08789062 20.94921875 C23.07532227 22.83060547 23.07532227 22.83060547 23.0625 24.75 C23.05798828 26.01972656 23.05347656 27.28945312 23.04882812 28.59765625 C23.03704556 31.73181836 23.02059416 34.86588541 23 38 C23.99 38 24.98 38 26 38 C26 38.99 26 39.98 26 41 C20.06 41 14.12 41 8 41 C7.67 40.01 7.34 39.02 7 38 C7.99 38 8.98 38 10 38 C9.505 22.655 9.505 22.655 9 7 C7.35 7.33 5.7 7.66 4 8 C2.60439955 10.79120091 2.78191712 13.20205692 2.68359375 16.3203125 C2.64169922 17.57714844 2.59980469 18.83398438 2.55664062 20.12890625 C2.51732422 21.44761719 2.47800781 22.76632813 2.4375 24.125 C2.39430488 25.46485751 2.35069027 26.80470156 2.30664062 28.14453125 C2.20029019 31.42957815 2.09826192 34.71470281 2 38 C2.99 38 3.98 38 5 38 C4.67 38.99 4.34 39.98 4 41 C-1.94 41 -7.88 41 -14 41 C-14 40.01 -14 39.02 -14 38 C-12.515 37.505 -12.515 37.505 -11 37 C-11 26.77 -11 16.54 -11 6 C-11.99 5.67 -12.98 5.34 -14 5 C-14 4.01 -14 3.02 -14 2 C-13.07316406 1.93941406 -12.14632813 1.87882812 -11.19140625 1.81640625 C-9.39509766 1.69072266 -9.39509766 1.69072266 -7.5625 1.5625 C-5.77005859 1.44068359 -5.77005859 1.44068359 -3.94140625 1.31640625 C-1.11429756 1.32343886 -1.11429756 1.32343886 0 0 Z " fill="#F4F4F4" transform="translate(298,79)"/>
<path d="M0 0 C0.33 0.99 0.66 1.98 1 3 C1.845625 2.505 2.69125 2.01 3.5625 1.5 C7.50282122 -0.21941289 9.74720893 -0.60754158 14 0 C16.8976178 1.63721903 19.45776644 3.54572759 20.65795898 6.76464844 C21.1077617 9.70425851 21.11117494 12.54151362 21.09765625 15.515625 C21.09443359 16.76601562 21.09121094 18.01640625 21.08789062 19.3046875 C21.07532227 21.25761719 21.07532227 21.25761719 21.0625 23.25 C21.05798828 24.56742188 21.05347656 25.88484375 21.04882812 27.2421875 C21.03704316 30.49483741 21.02059011 33.74739584 21 37 C22.32 37.33 23.64 37.66 25 38 C24.505 38.99 24.505 38.99 24 40 C18.06 40 12.12 40 6 40 C5.67 39.01 5.34 38.02 5 37 C5.99 37 6.98 37 8 37 C8.02473868 33.06731133 8.04287835 29.13465287 8.05493164 25.2019043 C8.06242729 23.20685232 8.07513345 21.21182214 8.08789062 19.21679688 C8.09111328 17.96318359 8.09433594 16.70957031 8.09765625 15.41796875 C8.10289307 14.26063232 8.10812988 13.1032959 8.11352539 11.91088867 C8.13299461 8.93395589 8.13299461 8.93395589 7 6 C5.35 6.33 3.7 6.66 2 7 C0.92044788 10.23865635 0.79558259 12.79155838 0.68359375 16.19921875 C0.64169922 17.40771484 0.59980469 18.61621094 0.55664062 19.86132812 C0.51732422 21.12396484 0.47800781 22.38660156 0.4375 23.6875 C0.39431641 24.96173828 0.35113281 26.23597656 0.30664062 27.54882812 C0.2004514 30.69910852 0.09840467 33.84946839 0 37 C0.99 37 1.98 37 3 37 C3 37.99 3 38.98 3 40 C-2.94 40 -8.88 40 -15 40 C-15.495 38.515 -15.495 38.515 -16 37 C-14.68 37 -13.36 37 -12 37 C-12.33 26.44 -12.66 15.88 -13 5 C-13.99 4.67 -14.98 4.34 -16 4 C-15.67 3.01 -15.34 2.02 -15 1 C-13.06263299 0.83179449 -11.12510094 0.66548905 -9.1875 0.5 C-7.56908203 0.36078125 -7.56908203 0.36078125 -5.91796875 0.21875 C-3 0 -3 0 0 0 Z " fill="#F5F5F5" transform="translate(178,80)"/>
<path d="M0 0 C0.33 0.99 0.66 1.98 1 3 C1.845625 2.505 2.69125 2.01 3.5625 1.5 C7.50282122 -0.21941289 9.74720893 -0.60754158 14 0 C16.8976178 1.63721903 19.45776644 3.54572759 20.65795898 6.76464844 C21.1077617 9.70425851 21.11117494 12.54151362 21.09765625 15.515625 C21.09443359 16.76601562 21.09121094 18.01640625 21.08789062 19.3046875 C21.07532227 21.25761719 21.07532227 21.25761719 21.0625 23.25 C21.05798828 24.56742188 21.05347656 25.88484375 21.04882812 27.2421875 C21.03704316 30.49483741 21.02059011 33.74739584 21 37 C22.32 37.33 23.64 37.66 25 38 C24.505 38.99 24.505 38.99 24 40 C18.06 40 12.12 40 6 40 C5.67 39.01 5.34 38.02 5 37 C6.485 36.505 6.485 36.505 8 36 C8.02902996 31.75001434 8.04680887 27.50005419 8.0625 23.25 C8.07087891 22.0434375 8.07925781 20.836875 8.08789062 19.59375 C8.09111328 18.43359375 8.09433594 17.2734375 8.09765625 16.078125 C8.10289307 15.00981445 8.10812988 13.94150391 8.11352539 12.84082031 C8.01503008 10.37610765 7.71565464 8.34754533 7 6 C5.05925139 6.27617533 5.05925139 6.27617533 3 7 C0.67547376 10.48678936 0.70226266 12.06967571 0.5859375 16.19921875 C0.54726563 17.40771484 0.50859375 18.61621094 0.46875 19.86132812 C0.42234375 21.7552832 0.42234375 21.7552832 0.375 23.6875 C0.33632813 24.96173828 0.29765625 26.23597656 0.2578125 27.54882812 C0.16342314 30.69907292 0.0778417 33.84930991 0 37 C0.99 37 1.98 37 3 37 C3 37.99 3 38.98 3 40 C-2.94 40 -8.88 40 -15 40 C-15.495 38.515 -15.495 38.515 -16 37 C-14.68 37 -13.36 37 -12 37 C-12.33 26.44 -12.66 15.88 -13 5 C-13.99 4.67 -14.98 4.34 -16 4 C-15.67 3.01 -15.34 2.02 -15 1 C-13.06263299 0.83179449 -11.12510094 0.66548905 -9.1875 0.5 C-7.56908203 0.36078125 -7.56908203 0.36078125 -5.91796875 0.21875 C-3 0 -3 0 0 0 Z " fill="#F5F5F5" transform="translate(44,80)"/>
<path d="M0 0 C7.09434233 -0.09733092 13.98194143 -0.10087193 21 1 C20.67 1.99 20.34 2.98 20 4 C19.01 4 18.02 4 17 4 C17 21.16 17 38.32 17 56 C18.32 56 19.64 56 21 56 C20.67 56.99 20.34 57.98 20 59 C13.4 59 6.8 59 0 59 C-0.495 57.515 -0.495 57.515 -1 56 C0.32 56 1.64 56 3 56 C3 38.84 3 21.68 3 4 C1.68 3.67 0.36 3.34 -1 3 C-0.67 2.01 -0.34 1.02 0 0 Z " fill="#F6F6F6" transform="translate(5,61)"/>
<path d="M0 0 C4.50644904 2.83437293 6.84270943 7.64505565 8.375 12.625 C8.045 13.945 7.715 15.265 7.375 16.625 C1.105 16.625 -5.165 16.625 -11.625 16.625 C-11.50125 19.038125 -11.3775 21.45125 -11.25 23.9375 C-11.21600098 24.69329346 -11.18200195 25.44908691 -11.14697266 26.2277832 C-10.93338282 29.83609834 -10.67131029 31.55553457 -8.625 34.625 C-5.25251384 35.29258785 -5.25251384 35.29258785 -1.625 34.625 C1.62384494 32.02592405 3.80239812 29.48502281 5.375 25.625 C6.365 25.625 7.355 25.625 8.375 25.625 C7.34826851 31.32906386 5.62314801 33.83059967 1.12890625 37.4609375 C-2.7832434 40.0574199 -7.08408632 40.23793702 -11.625 39.625 C-17.98798242 36.38112661 -22.35555501 31.41325138 -24.625 24.625 C-25.53171136 17.57162907 -24.96519838 11.40351994 -20.625 5.625 C-14.51036936 -0.73977462 -8.76338655 -3.32404317 0 0 Z " fill="#F1F1F1" transform="translate(120.625,81.375)"/>
<path d="M0 0 C4.97310423 3.24332885 7.72504968 6.5146848 9.25 12.1875 C9.45625 13.404375 9.6625 14.62125 9.875 15.875 C8.875 16.875 8.875 16.875 7.01733398 16.98852539 C6.22657471 16.98328857 5.43581543 16.97805176 4.62109375 16.97265625 C3.76708984 16.96943359 2.91308594 16.96621094 2.03320312 16.96289062 C0.68645508 16.95032227 0.68645508 16.95032227 -0.6875 16.9375 C-1.58919922 16.93298828 -2.49089844 16.92847656 -3.41992188 16.92382812 C-5.65501314 16.91200225 -7.88997437 16.8955222 -10.125 16.875 C-9.98446128 19.50038284 -9.83781053 22.12517427 -9.6875 24.75 C-9.64818359 25.49636719 -9.60886719 26.24273437 -9.56835938 27.01171875 C-9.40926376 31.07486864 -9.40926376 31.07486864 -8.125 34.875 C-2.21364812 35.49177353 -2.21364812 35.49177353 2.75 32.625 C4.4751056 30.3925104 5.81627503 28.47368856 6.875 25.875 C7.865 26.205 8.855 26.535 9.875 26.875 C7.84529002 32.62584495 5.86559711 35.33999371 0.875 38.875 C-3.68274994 40.39424998 -7.805209 40.81046726 -12.28515625 39.00390625 C-17.34566395 36.11894392 -19.65857558 33.10381977 -22.125 27.875 C-22.455 27.215 -22.785 26.555 -23.125 25.875 C-24.04325121 17.58450333 -23.24800095 10.64379595 -18.125 3.875 C-12.610662 -1.23556848 -7.20718332 -2.59458599 0 0 Z " fill="#F1F1F1" transform="translate(351.125,81.125)"/>
<path d="M0 0 C2.16463297 0.07080988 2.16463297 0.07080988 4.875 -0.625 C8 -1 8 -1 10.3125 -0.5 C12 1 12 1 12.9375 4.375 C13 8 13 8 11.9375 10.4375 C10 12 10 12 7 12.5 C4 12 4 12 2.125 10 C1.75375 9.34 1.3825 8.68 1 8 C-0.0394775 11.1184325 -0.11494838 13.27475586 -0.09765625 16.54296875 C-0.09282227 18.15268555 -0.09282227 18.15268555 -0.08789062 19.79492188 C-0.07951172 20.91447266 -0.07113281 22.03402344 -0.0625 23.1875 C-0.05798828 24.31865234 -0.05347656 25.44980469 -0.04882812 26.61523438 C-0.03703498 29.41020927 -0.0205765 32.2050782 0 35 C1.32 35.33 2.64 35.66 4 36 C3.67 36.99 3.34 37.98 3 39 C-3.27 39 -9.54 39 -16 39 C-16 38.01 -16 37.02 -16 36 C-15.01 36 -14.02 36 -13 36 C-13 25.11 -13 14.22 -13 3 C-14.32 3 -15.64 3 -17 3 C-16.67 2.01 -16.34 1.02 -16 0 C-14.08416353 -0.1958009 -12.16727461 -0.38132214 -10.25 -0.5625 C-8.64898437 -0.71912109 -8.64898437 -0.71912109 -7.015625 -0.87890625 C-4.33233153 -0.98665508 -2.53074771 -0.7694841 0 0 Z " fill="#F1F1F1" transform="translate(149,81)"/>
<path d="M0 0 C0.66 0.33 1.32 0.66 2 1 C2 6.28 2 11.56 2 17 C3.65 17 5.3 17 7 17 C7 17.99 7 18.98 7 20 C5.68 20.33 4.36 20.66 3 21 C3 30.9 3 40.8 3 51 C5.51083114 49.74458443 5.87125446 48.49936512 7 46 C7.66 46 8.32 46 9 46 C8.16732129 53.32757266 8.16732129 53.32757266 5 56 C0.62901745 57.23197578 -2.8063243 57.52223312 -7 55.6875 C-9 54 -9 54 -10 52 C-10.08639869 49.59161322 -10.11567764 47.21266119 -10.09765625 44.8046875 C-10.0962413 44.09724396 -10.09482635 43.38980042 -10.09336853 42.66091919 C-10.087766 40.39890331 -10.07521318 38.13698602 -10.0625 35.875 C-10.05748532 34.34244935 -10.05292236 32.80989714 -10.04882812 31.27734375 C-10.03779577 27.51819112 -10.02052952 23.75911228 -10 20 C-11.32 20 -12.64 20 -14 20 C-14 19.01 -14 18.02 -14 17 C-12.39125 16.443125 -12.39125 16.443125 -10.75 15.875 C-5.98624843 13.81006736 -4.07458509 10.57066692 -2.09375 5.83203125 C-1.35617244 3.90271958 -0.6733317 1.95266193 0 0 Z " fill="#F4F4F4" transform="translate(85,64)"/>
<path d="M0 0 C1.67542976 0.28604898 3.34385343 0.61781233 5 1 C5.57262146 22.23691503 4.31922064 40.69573304 -7.9609375 58.84375 C-9.18377486 60.92653022 -9.18377486 60.92653022 -8.8515625 63.15625 C-8.02966656 65.35779083 -8.02966656 65.35779083 -5 67 C-6.24657701 75.36165504 -16.0046882 82.26974947 -22.3359375 87.12109375 C-30.9414936 93.19040825 -41.14402683 100 -52 100 C-51.67 101.65 -51.34 103.3 -51 105 C-46.64845617 104.4163354 -42.9734478 103.34353261 -38.9375 101.625 C-37.93589844 101.20476562 -36.93429687 100.78453125 -35.90234375 100.3515625 C-32.97121947 99.05062137 -32.97121947 99.05062137 -30.25390625 97.3359375 C-28 96 -28 96 -26 96 C-25.505 94.515 -25.505 94.515 -25 93 C-23.35 93 -21.7 93 -20 93 C-20 94.65 -20 96.3 -20 98 C-20.80050781 98.23783203 -20.80050781 98.23783203 -21.6171875 98.48046875 C-25.88173143 99.81590552 -29.80010509 101.33952303 -33.75 103.4375 C-39.53352461 106.42929182 -45.64321205 108.57711432 -52 110 C-54 109 -54 109 -55.1875 106.25 C-56.01105448 102.95578208 -55.94405381 101.20978295 -55 98 C-50.8803623 96.70756464 -47.33168317 95.73747375 -43 96 C-43 95.34 -43 94.68 -43 94 C-41.99582031 93.55011719 -40.99164063 93.10023438 -39.95703125 92.63671875 C-28.5956322 87.36218226 -17.14553616 80.66524333 -10 70 C-10.33 69.01 -10.66 68.02 -11 67 C-11.99 66.67 -12.98 66.34 -14 66 C-14 66.66 -14 67.32 -14 68 C-14.66 68 -15.32 68 -16 68 C-16.28875 68.5775 -16.5775 69.155 -16.875 69.75 C-17.91666667 71.83333333 -18.95833333 73.91666667 -20 76 C-21.65 76 -23.3 76 -25 76 C-25.33 75.01 -25.66 74.02 -26 73 C-25.50628906 72.66226563 -25.01257813 72.32453125 -24.50390625 71.9765625 C-23.86324219 71.53054687 -23.22257812 71.08453125 -22.5625 70.625 C-21.92441406 70.18414062 -21.28632813 69.74328125 -20.62890625 69.2890625 C-18.86259072 68.07839147 -18.86259072 68.07839147 -18 66 C-17.34 66 -16.68 66 -16 66 C-15.72800781 65.43410156 -15.45601563 64.86820312 -15.17578125 64.28515625 C-13.95747839 61.91735832 -12.59760679 59.69590322 -11.1875 57.4375 C-1.04570287 40.51801406 1.33238001 24.50725454 0 5 C-0.18981445 4.2582251 -0.37962891 3.5164502 -0.57519531 2.75219727 C-0.71538086 2.17397217 -0.85556641 1.59574707 -1 1 C-0.67 0.67 -0.34 0.34 0 0 Z " fill="#1C8595" transform="translate(395,85)"/>
<path d="M0 0 C1.45823212 -0.0270043 2.91660675 -0.04639787 4.375 -0.0625 C5.18710937 -0.07410156 5.99921875 -0.08570313 6.8359375 -0.09765625 C9 0 9 0 11 1 C12.03640625 0.98195313 13.0728125 0.96390625 14.140625 0.9453125 C18.25479886 1.00361051 21.83491369 1.72169711 25.75 2.875 C26.47155273 3.08624512 27.19310547 3.29749023 27.93652344 3.51513672 C38.97979979 6.99539904 49.16144998 12.97880739 59 19 C58.505 20.485 58.505 20.485 58 22 C56.515 22.495 56.515 22.495 55 23 C53.5 21.625 53.5 21.625 52 20 C52 19.34 52 18.68 52 18 C48.68885166 16.87119943 45.41021743 15.78697325 42 15 C41.505 17.475 41.505 17.475 41 20 C39.35 20 37.7 20 36 20 C35.505 18.515 35.505 18.515 35 17 C35.474375 16.566875 35.94875 16.13375 36.4375 15.6875 C38.23686957 13.97690387 38.23686957 13.97690387 39 11 C35.67188151 9.98207222 32.33672111 8.98932432 29 8 C27.71996094 7.60554687 27.71996094 7.60554687 26.4140625 7.203125 C18.68870963 4.92959773 10.98351674 3.91578802 3 3 C3 4.32 3 5.64 3 7 C3.58265625 7.10957031 4.1653125 7.21914062 4.765625 7.33203125 C24.06432749 11.06432749 24.06432749 11.06432749 26 13 C25.29411765 20.41176471 25.29411765 20.41176471 24 23 C22.60386935 22.85704109 21.20810692 22.71048442 19.8125 22.5625 C19.03519531 22.48128906 18.25789063 22.40007813 17.45703125 22.31640625 C15 22 15 22 12.67773438 21.5 C9.98625376 20.99743323 7.43327899 20.79551434 4.69921875 20.68359375 C3.72275391 20.64169922 2.74628906 20.59980469 1.74023438 20.55664062 C0.73283203 20.51732422 -0.27457031 20.47800781 -1.3125 20.4375 C-2.85260742 20.37272461 -2.85260742 20.37272461 -4.42382812 20.30664062 C-6.94909569 20.20093175 -9.47445562 20.09883532 -12 20 C-12 22.97 -12 25.94 -12 29 C-13.25296875 29.38671875 -14.5059375 29.7734375 -15.796875 30.171875 C-17.448122 30.69727177 -19.09915251 31.22334927 -20.75 31.75 C-21.575 32.00265625 -22.4 32.2553125 -23.25 32.515625 C-27.88324516 34.01022021 -30.68732264 35.2975959 -34 39 C-36.75 38.75 -36.75 38.75 -39 38 C-38.70947266 36.10424805 -38.70947266 36.10424805 -38 34 C-35.42794288 32.71996691 -33.07122839 31.73767641 -30.375 30.8125 C-29.67503906 30.55275391 -28.97507812 30.29300781 -28.25390625 30.02539062 C-23.83476692 28.43892781 -19.6662283 27.50826371 -15 27 C-15.33 24.03 -15.66 21.06 -16 18 C-11.1636229 16.75863011 -6.39597145 16.80880103 -1.4375 16.8125 C-0.5515918 16.81185547 0.33431641 16.81121094 1.24707031 16.81054688 C8.01597999 16.86483634 14.38446295 17.49402409 21 19 C21.66 17.35 22.32 15.7 23 14 C21.85402344 13.87882812 20.70804687 13.75765625 19.52734375 13.6328125 C17.99736094 13.46385734 16.46741493 13.29456873 14.9375 13.125 C14.18533203 13.04636719 13.43316406 12.96773437 12.65820312 12.88671875 C7.9085007 12.35212021 3.55890412 11.44092853 -1 10 C-1.125 3.375 -1.125 3.375 0 0 Z " fill="#1D899A" transform="translate(321,5)"/>
<path d="M0 0 C0.66 0.33 1.32 0.66 2 1 C1.67 3.97 1.34 6.94 1 10 C2.65 10 4.3 10 6 10 C7 12 7 12 7 16 C8.32 14.02 9.64 12.04 11 10 C11.99 10.33 12.98 10.66 14 11 C15.175625 10.7215625 15.175625 10.7215625 16.375 10.4375 C19 10 19 10 21.5 11.0625 C24.0240135 12.31313921 24.0240135 12.31313921 26.6875 11.0625 C27.8321875 10.5365625 27.8321875 10.5365625 29 10 C29.66 10.33 30.32 10.66 31 11 C30.125 15.875 30.125 15.875 29 17 C29.66 17.66 30.32 18.32 31 19 C29.8125 20.5625 29.8125 20.5625 28 22 C25.4375 22 25.4375 22 23 21 C21.625 18.5625 21.625 18.5625 21 16 C21.33 15.34 21.66 14.68 22 14 C20.06890419 13.95710245 20.06890419 13.95710245 18 15 C16.20728609 18.48797488 16.20728609 18.48797488 15 22 C13.906875 21.814375 12.81375 21.62875 11.6875 21.4375 C8.06375867 20.7421932 8.06375867 20.7421932 5 22 C3.4375 20.875 3.4375 20.875 2 19 C2.3125 15.8125 2.3125 15.8125 3 13 C2.01 13 1.02 13 0 13 C-0.33 15.64 -0.66 18.28 -1 21 C-2.32 20.67 -3.64 20.34 -5 20 C-4.67 17.69 -4.34 15.38 -4 13 C-4.66 13 -5.32 13 -6 13 C-6.33 15.64 -6.66 18.28 -7 21 C-7.99 21 -8.98 21 -10 21 C-10.680625 21.20625 -11.36125 21.4125 -12.0625 21.625 C-12.701875 21.74875 -13.34125 21.8725 -14 22 C-16 20 -16 20 -16.23046875 18.125 C-16.21628906 17.42375 -16.20210937 16.7225 -16.1875 16 C-16.18105469 15.29875 -16.17460938 14.5975 -16.16796875 13.875 C-16 12 -16 12 -15 10 C-14.01 10.33 -13.02 10.66 -12 11 C-12 12.65 -12 14.3 -12 16 C-11.1646875 14.5459375 -11.1646875 14.5459375 -10.3125 13.0625 C-8 10 -8 10 -5.25 9.125 C-4.5075 9.08375 -3.765 9.0425 -3 9 C-2.86722656 8.43410156 -2.73445313 7.86820313 -2.59765625 7.28515625 C-2.42105469 6.55167969 -2.24445312 5.81820312 -2.0625 5.0625 C-1.88847656 4.33160156 -1.71445312 3.60070312 -1.53515625 2.84765625 C-1 1 -1 1 0 0 Z " fill="#D4D4D4" transform="translate(55,133)"/>
<path d="M0 0 C0.99 0.33 1.98 0.66 3 1 C2.67 3.64 2.34 6.28 2 9 C4.98241547 9.77321882 7.97580475 10.41196203 11 11 C11 14 11 17 11 20 C9.02 20.99 9.02 20.99 7 22 C5 20.8125 5 20.8125 3 19 C2.75 16.3125 2.75 16.3125 3 14 C2.34 13.67 1.68 13.34 1 13 C0.896875 14.11375 0.79375 15.2275 0.6875 16.375 C0.460625 17.57125 0.23375 18.7675 0 20 C-0.99 20.66 -1.98 21.32 -3 22 C-4.10844919 18.67465243 -3.84454356 16.37817425 -3 13 C-5.31 13.33 -7.62 13.66 -10 14 C-10.66 16.31 -11.32 18.62 -12 21 C-12.99 21 -13.98 21 -15 21 C-15.99 21.2475 -15.99 21.2475 -17 21.5 C-20.258051 22.31451275 -22.82999843 21.87448319 -26 21 C-25.7633636 16.89830241 -25.56009401 14.64010743 -22.8125 11.5 C-19.29353631 9.62321936 -17.81249877 10.12630236 -14 11 C-12.32706064 10.69972883 -10.66014616 10.36442233 -9 10 C-6.66698014 9.96175377 -4.33288492 9.95425716 -2 10 C-1.34 6.7 -0.68 3.4 0 0 Z " fill="#D8D8D8" transform="translate(139,133)"/>
<path d="M0 0 C5.00204329 1.50720702 8.10395018 4.4940354 11.8125 8 C12.7087207 8.81984375 12.7087207 8.81984375 13.62304688 9.65625 C15.12630533 11.05814589 16.56870925 12.52470177 18 14 C18 14.66 18 15.32 18 16 C18.66 16 19.32 16 20 16 C22 19 22 19 22 22 C22.66 22 23.32 22 24 22 C25.5078125 23.609375 25.5078125 23.609375 27.125 25.75 C27.66382813 26.44609375 28.20265625 27.1421875 28.7578125 27.859375 C30 30 30 30 30 34 C28.02 34.495 28.02 34.495 26 35 C25.8040625 34.47792969 25.608125 33.95585938 25.40625 33.41796875 C20.68100862 21.78817207 12.79087253 12.6871794 3 5 C2.01 4.67 1.02 4.34 0 4 C-0.66 5.65 -1.32 7.3 -2 9 C-1.41605469 9.27070312 -0.83210938 9.54140625 -0.23046875 9.8203125 C11.75555082 16.15967837 21.30656441 30.75829938 25.80859375 43.2421875 C26.26564086 44.81190793 26.64533931 46.40402691 27 48 C26.34 48 25.68 48 25 48 C25 48.66 25 49.32 25 50 C22.12387956 48.56193978 22.07197082 46.81658786 21.0625 43.8125 C18.48955234 36.51622143 15.42184893 31.03428382 10.5234375 25.05078125 C9 23 9 23 8 20 C7.34 20 6.68 20 6 20 C6 19.34 6 18.68 6 18 C5.34 18 4.68 18 4 18 C4 17.34 4 16.68 4 16 C3.46375 15.773125 2.9275 15.54625 2.375 15.3125 C-0.78500863 13.56617944 -3.2676983 11.3597151 -6 9 C-2.25 2.25 -2.25 2.25 0 0 Z " fill="#1B879A" transform="translate(369,29)"/>
<path d="M0 0 C2.4562608 0.90062896 3.87331429 1.85869671 5.625 3.8125 C13.09600817 10.69369173 22.68363068 12.27943496 32.31640625 14.203125 C36 15 36 15 37 16 C37.0979057 17.49738124 37.12974864 18.99942892 37.125 20.5 C37.12886719 21.72203125 37.12886719 21.72203125 37.1328125 22.96875 C37 25 37 25 36 26 C22.97277244 27.73128732 9.11420332 22.15611403 -1.13671875 14.37890625 C-3.02208149 12.85043088 -3.02208149 12.85043088 -5.6875 12 C-6.8321875 11.505 -6.8321875 11.505 -8 11 C-8.33 10.01 -8.66 9.02 -9 8 C-8.67 7.34 -8.34 6.68 -8 6 C-6.35 6.33 -4.7 6.66 -3 7 C-3 7.99 -3 8.98 -3 10 C-2.34 10.226875 -1.68 10.45375 -1 10.6875 C1.46742767 11.76699961 3.15212501 12.78922007 5.3125 14.3125 C12.99147649 19.26052118 23.06233996 21.71921383 32 23 C32.33 21.35 32.66 19.7 33 18 C32.2471875 17.9484375 31.494375 17.896875 30.71875 17.84375 C21.22162935 16.8294944 14.07861033 13.49735546 5.78564453 8.96533203 C3.22217635 7.57950305 0.61339505 6.2885209 -2 5 C-2 3.68 -2 2.36 -2 1 C-1.34 0.67 -0.68 0.34 0 0 Z " fill="#1B8899" transform="translate(281,145)"/>
<path d="M0 0 C1.32 0.33 2.64 0.66 4 1 C4 5.58234046 3.4819242 6.05508122 0.5 9.25 C-0.1496875 9.95640625 -0.799375 10.6628125 -1.46875 11.390625 C-1.9740625 11.92171875 -2.479375 12.4528125 -3 13 C-1.97483135 15.06763972 -0.93854481 17.10997245 0.1875 19.125 C0.455625 19.74375 0.72375 20.3625 1 21 C0.67 21.66 0.34 22.32 0 23 C-0.66 23 -1.32 23 -2 23 C-2 23.66 -2 24.32 -2 25 C-13.96645199 36.09738006 -29.50540698 41.11054094 -45 45 C-45.66 44.34 -46.32 43.68 -47 43 C-46.625 40.875 -46.625 40.875 -46 39 C-44.948125 39.0825 -43.89625 39.165 -42.8125 39.25 C-29.74866516 39.22687817 -15.29381812 31.95331185 -6 23 C-4.75556475 20.89489287 -4.75556475 20.89489287 -4 19 C-5.79217845 18.19763396 -5.79217845 18.19763396 -8 18 C-10.06201315 19.30934858 -10.06201315 19.30934858 -11.9375 21.25 C-19.18600299 28 -19.18600299 28 -24 28 C-22.55607399 24.38628248 -20.8455457 22.95907986 -17.5625 20.9375 C-15.25889245 19.50675857 -13.24589746 18.24936895 -11.33984375 16.31640625 C-10 15 -10 15 -8 15 C-7.7525 14.443125 -7.505 13.88625 -7.25 13.3125 C-6 11 -6 11 -4 8.625 C-1.85969426 5.81584872 -0.94329845 3.38015276 0 0 Z " fill="#278C9B" transform="translate(371,128)"/>
<path d="M0 0 C1.32 0.66 2.64 1.32 4 2 C4 6.95 4 11.9 4 17 C5.65 17 7.3 17 9 17 C9.33 15.02 9.66 13.04 10 11 C10.33 11 10.66 11 11 11 C11.66098067 23.82302507 11.39117324 35.91324014 4 47 C3.29835358 48.98799818 2.62627128 50.98698517 2 53 C0.35 52.67 -1.3 52.34 -3 52 C-2.36698625 48.32852027 -2.36698625 48.32852027 -0.62109375 46.765625 C1.64181442 44.30096357 2.46804547 41.68911639 3.625 38.5625 C4.26308594 36.86287109 4.26308594 36.86287109 4.9140625 35.12890625 C6.64193185 30.15040499 7.10216429 26.31254326 7 21 C5.68 20.67 4.36 20.34 3 20 C2.95101563 20.98742187 2.90203125 21.97484375 2.8515625 22.9921875 C2.73941406 24.91417969 2.73941406 24.91417969 2.625 26.875 C2.55539062 28.15117188 2.48578125 29.42734375 2.4140625 30.7421875 C2 34 2 34 0 36 C-2.125 35.625 -2.125 35.625 -4 35 C-4 33.68 -4 32.36 -4 31 C-3.34 31 -2.68 31 -2 31 C-1.19792202 25.37272277 -0.84473065 19.93054735 -0.875 14.25 C-0.87113281 13.50878906 -0.86726563 12.76757812 -0.86328125 12.00390625 C-0.84525731 7.89401477 -0.84525731 7.89401477 -1.63330078 3.88574219 C-1.75431152 3.26344727 -1.87532227 2.64115234 -2 2 C-1.34 1.34 -0.68 0.68 0 0 Z " fill="#208495" transform="translate(379,87)"/>
<path d="M0 0 C4.69370476 -0.38315957 8.2851899 -0.09664527 12.3515625 2.4609375 C15.66484863 5.55438474 17.67796555 9.70338805 19 14 C18.67 15.32 18.34 16.64 18 18 C11.73 18 5.46 18 -1 18 C-1.13392857 4.74107143 -1.13392857 4.74107143 0 0 Z " fill="#E9E9E9" transform="translate(110,80)"/>
<path d="M0 0 C5.26188885 -0.31571333 8.55464669 0.10085653 13 3 C17.48979411 7.38775334 18.9532673 10.82427707 20 17 C19 18 19 18 17.14233398 18.11352539 C16.35157471 18.10828857 15.56081543 18.10305176 14.74609375 18.09765625 C13.89208984 18.09443359 13.03808594 18.09121094 12.15820312 18.08789062 C11.26037109 18.07951172 10.36253906 18.07113281 9.4375 18.0625 C8.53580078 18.05798828 7.63410156 18.05347656 6.70507812 18.04882812 C4.46998686 18.03700225 2.23502563 18.0205222 0 18 C-0.05402274 15.89611431 -0.09280256 13.79183286 -0.125 11.6875 C-0.14820313 10.51574219 -0.17140625 9.34398438 -0.1953125 8.13671875 C0 5 0 5 2 2 C1.34 1.34 0.68 0.68 0 0 Z " fill="#ECECEC" transform="translate(341,80)"/>
<path d="M0 0 C-0.33 1.32 -0.66 2.64 -1 4 C-2.27875 4.103125 -3.5575 4.20625 -4.875 4.3125 C-10.13670594 4.88133308 -14.99147146 6.3374613 -20 8 C-19.67 9.32 -19.34 10.64 -19 12 C-17.78183594 11.72285156 -16.56367188 11.44570313 -15.30859375 11.16015625 C-13.68492812 10.79412758 -12.06122838 10.4282502 -10.4375 10.0625 C-9.63763672 9.88009766 -8.83777344 9.69769531 -8.01367188 9.50976562 C-3.35366053 8.46364063 1.26199834 7.60417471 6 7 C5.67 8.65 5.34 10.3 5 12 C4.00355469 11.95875 3.00710938 11.9175 1.98046875 11.875 C-2.15910422 12.0049964 -5.7536433 12.82500345 -9.6875 14 C-13.56969068 15.13887853 -16.89786753 16 -21 16 C-21.66 14.02 -22.32 12.04 -23 10 C-29.27988901 12.18271871 -33.31383457 14.17994413 -38 19 C-40.8125 19.3125 -40.8125 19.3125 -43 19 C-42.77172852 16.65625 -42.77172852 16.65625 -42 14 C-40.12084961 12.59375 -40.12084961 12.59375 -37.65234375 11.5 C-36.28988525 10.88475464 -36.28988525 10.88475464 -34.89990234 10.25708008 C-33.43351318 9.63482544 -33.43351318 9.63482544 -31.9375 9 C-30.9470166 8.56647217 -29.9565332 8.13294434 -28.93603516 7.6862793 C-5.78177796 -2.25805756 -5.78177796 -2.25805756 0 0 Z " fill="#2196AB" transform="translate(307,6)"/>
<path d="M0 0 C1.65 0.33 3.3 0.66 5 1 C5 1.99 5 2.98 5 4 C5.68449219 4.25652344 6.36898438 4.51304687 7.07421875 4.77734375 C9.80804984 5.91978585 12.39640561 7.22892595 15.01318359 8.61499023 C20.65148112 11.58408558 25.52585803 13.87051716 32 14 C32.495 16.475 32.495 16.475 33 19 C31.35 19.33 29.7 19.66 28 20 C28 19.34 28 18.68 28 18 C27.40832031 17.80664062 26.81664062 17.61328125 26.20703125 17.4140625 C22.0853355 16.05585281 18.0049476 14.67949415 14 13 C13.7525 13.804375 13.505 14.60875 13.25 15.4375 C12 18 12 18 10.26171875 18.859375 C6.9267287 19.06673189 5.30218334 17.65542152 2.5625 15.8125 C1.63566406 15.20019531 0.70882813 14.58789062 -0.24609375 13.95703125 C-2.91363632 12.06137334 -5.44672447 10.04522581 -8 8 C-9.31138904 7.29114106 -10.63777017 6.60543548 -12 6 C-11.67 4.35 -11.34 2.7 -11 1 C-9.35 1.33 -7.7 1.66 -6 2 C-6 3.32 -6 4.64 -6 6 C-5.46890625 6.24492187 -4.9378125 6.48984375 -4.390625 6.7421875 C-1.3617535 8.33580943 1.41223973 10.21259634 4.25 12.125 C5.86648438 13.21167969 5.86648438 13.21167969 7.515625 14.3203125 C8.33546875 14.87460938 9.1553125 15.42890625 10 16 C10.33 14.35 10.66 12.7 11 11 C7.08705685 8.08447373 3.67105792 5.55701931 -1 4 C-0.67 2.68 -0.34 1.36 0 0 Z " fill="#1C8FA1" transform="translate(269,159)"/>
<path d="M0 0 C1.65 0 3.3 0 5 0 C4.765625 2.375 4.765625 2.375 4 5 C2.171875 6.1875 2.171875 6.1875 -0.25 7 C-1.15234375 7.31710938 -2.0546875 7.63421875 -2.984375 7.9609375 C-3.97953125 8.30382812 -4.9746875 8.64671875 -6 9 C-8.16772419 9.87237681 -10.33436283 10.74745508 -12.5 11.625 C-20.95521145 14.8427327 -28.40926427 16.28003977 -37.45703125 15.97265625 C-40.03453076 15.91698558 -40.03453076 15.91698558 -42.63671875 16.55859375 C-45 17 -45 17 -48 16 C-48.33 17.65 -48.66 19.3 -49 21 C-46.36 21.33 -43.72 21.66 -41 22 C-41 22.99 -41 23.98 -41 25 C-42.64630328 24.85957123 -44.29204179 24.71250671 -45.9375 24.5625 C-47.31228516 24.44068359 -47.31228516 24.44068359 -48.71484375 24.31640625 C-51 24 -51 24 -52 23 C-52.23880597 15.47761194 -52.23880597 15.47761194 -51 13 C-50.38705078 12.9906543 -49.77410156 12.98130859 -49.14257812 12.97167969 C-32.19030701 12.64835664 -15.41450494 12.15105982 -1 2 C-0.67 1.34 -0.34 0.68 0 0 Z " fill="#1B8393" transform="translate(360,164)"/>
<path d="M0 0 C9.81055648 1.03126182 18.61487731 2.87162577 28 6 C29.32923059 6.34933498 30.66104315 6.6900267 32 7 C32.99 4.69 33.98 2.38 35 0 C37.475 0.495 37.475 0.495 40 1 C39.42906864 4.3114019 38.45395174 5.75054423 36 8 C35.67 8.66 35.34 9.32 35 10 C35.71929687 10.25652344 36.43859375 10.51304688 37.1796875 10.77734375 C40.16413148 12.07115395 42.50443437 13.64315606 45.125 15.5625 C47.83500053 17.54351862 49.8038487 18.93461623 53 20 C52.505 22.475 52.505 22.475 52 25 C50.25 24.8125 50.25 24.8125 48 24 C47.39414062 23.23042969 46.78828125 22.46085937 46.1640625 21.66796875 C37.93164958 11.51862213 22.85965732 7.20005922 10.4140625 5.19921875 C7.09719512 4.92549668 4.2589061 5.37595415 1 6 C0.34 5.67 -0.32 5.34 -1 5 C-0.67 3.35 -0.34 1.7 0 0 Z " fill="#198396" transform="translate(318,29)"/>
<path d="M0 0 C0.8353125 0.37125 0.8353125 0.37125 1.6875 0.75 C0.8125 5.625 0.8125 5.625 -0.3125 6.75 C0.3475 7.08 1.0075 7.41 1.6875 7.75 C2.3475 5.44 3.0075 3.13 3.6875 0.75 C7.71138444 -0.31514588 10.62343628 0.05824447 14.6875 0.75 C16.96400745 0.3922386 16.96400745 0.3922386 18.6875 -0.25 C19.8125 1.3125 19.8125 1.3125 20.6875 3.75 C19.8125 7.5 19.8125 7.5 18.6875 10.75 C17.0375 11.08 15.3875 11.41 13.6875 11.75 C12.125 10 12.125 10 10.6875 7.75 C11 5.5 11 5.5 11.6875 3.75 C9.76440578 3.78955898 9.76440578 3.78955898 7.6875 4.75 C7.295625 5.74 6.90375 6.73 6.5 7.75 C4.6875 10.75 4.6875 10.75 2.60546875 11.47265625 C0.17017191 11.81493545 -1.87014285 12.07299288 -4.3125 11.75 C-6.60843762 9.97679818 -7.22306986 9.18597196 -7.8125 6.3125 C-7.3125 3.75 -7.3125 3.75 -5.0625 1.375 C-2.3125 -0.25 -2.3125 -0.25 0 0 Z " fill="#ECECEC" transform="translate(180.3125,143.25)"/>
<path d="M0 0 C1.67542976 0.28604898 3.34385343 0.61781233 5 1 C5.60624878 23.48405721 3.45796032 41.64949119 -9 61 C-9.99 60.34 -10.98 59.68 -12 59 C-11.45730469 57.94941406 -10.91460937 56.89882812 -10.35546875 55.81640625 C-3.4739147 42.36733414 0.18241069 31.64624328 0.125 16.375 C0.12886719 15.33859375 0.13273437 14.3021875 0.13671875 13.234375 C0.13542969 12.23664063 0.13414062 11.23890625 0.1328125 10.2109375 C0.13168457 9.30649902 0.13055664 8.40206055 0.12939453 7.47021484 C0.08047207 5.01127219 0.08047207 5.01127219 -0.57080078 2.73681641 C-0.78325439 1.87709229 -0.78325439 1.87709229 -1 1 C-0.67 0.67 -0.34 0.34 0 0 Z " fill="#17788B" transform="translate(395,85)"/>
<path d="M0 0 C2.41796875 0.20703125 2.41796875 0.20703125 5 1 C6.30078125 2.57421875 6.30078125 2.57421875 7.3125 4.6875 C9.07754441 8.20088493 10.93204808 11.60425053 12.94970703 14.98022461 C18.48451554 24.3065442 23.79556011 34.5346994 24.31640625 45.546875 C24.35830078 46.39121094 24.40019531 47.23554687 24.44335938 48.10546875 C24.48267578 48.97816406 24.52199219 49.85085937 24.5625 50.75 C24.60568359 51.63816406 24.64886719 52.52632812 24.69335938 53.44140625 C24.79913615 55.62745963 24.90122546 57.81362089 25 60 C23.515 60.495 23.515 60.495 22 61 C21.91363281 59.97003906 21.82726562 58.94007812 21.73828125 57.87890625 C20.00282751 39.46563293 15.13730536 20.49733696 3 6 C2.01 5.67 1.02 5.34 0 5 C-0.75 3 -0.75 3 -1 1 C-0.67 0.67 -0.34 0.34 0 0 Z " fill="#1B7F92" transform="translate(391,38)"/>
<path d="M0 0 C0.495 2.475 0.495 2.475 1 5 C-1.91206533 6.16482613 -3.12964572 5.96131157 -6.20703125 5.04296875 C-20.8271553 1.02281106 -35.4383279 5.14417185 -48.3203125 12.18359375 C-50.88905614 13.92479753 -52.34606168 15.4050278 -54 18 C-55.32 17.67 -56.64 17.34 -58 17 C-57.9375 14.6875 -57.9375 14.6875 -57 12 C-54.0625 10.5 -54.0625 10.5 -52.12890625 9.80859375 C-49.78286472 8.91752844 -47.69899622 7.77029592 -45.5 6.5625 C-30.60194838 -0.76441063 -16.24359054 -0.50128588 0 0 Z " fill="#228B9C" transform="translate(337,39)"/>
<path d="M0 0 C0.99 0 1.98 0 3 0 C3.02888514 3.14581423 3.04675923 6.29159469 3.0625 9.4375 C3.07087891 10.33533203 3.07925781 11.23316406 3.08789062 12.15820312 C3.09111328 13.01220703 3.09433594 13.86621094 3.09765625 14.74609375 C3.10289307 15.53685303 3.10812988 16.3276123 3.11352539 17.14233398 C3 19 3 19 2 20 C-0.6662603 20.08855161 -3.30647114 20.11524673 -5.97265625 20.09765625 C-6.77029892 20.0962413 -7.56794159 20.09482635 -8.38975525 20.09336853 C-10.94737435 20.08775316 -13.50490718 20.07519812 -16.0625 20.0625 C-17.79231645 20.05748698 -19.52213426 20.05292373 -21.25195312 20.04882812 C-25.50133553 20.03777875 -29.75065312 20.02050386 -34 20 C-34 18.35 -34 16.7 -34 15 C-33.67 16.32 -33.34 17.64 -33 19 C-31.04082341 18.9131252 -29.08258129 18.80495488 -27.125 18.6875 C-26.03445312 18.62949219 -24.94390625 18.57148437 -23.8203125 18.51171875 C-22.88960937 18.34285156 -21.95890625 18.17398438 -21 18 C-20.34 17.01 -19.68 16.02 -19 15 C-19 15.66 -19 16.32 -19 17 C-16.89202247 16.60306272 -14.78863223 16.18170804 -12.6875 15.75 C-11.51574219 15.51796875 -10.34398437 15.2859375 -9.13671875 15.046875 C-5.63417334 13.87790592 -4.71440044 13.20322188 -3 10 C-2.01310803 7.42967443 -2.01310803 7.42967443 -1.3125 4.75 C-0.93544922 3.41195312 -0.93544922 3.41195312 -0.55078125 2.046875 C-0.36902344 1.37140625 -0.18726563 0.6959375 0 0 Z " fill="#E8E8E8" transform="translate(238,100)"/>
<path d="M0 0 C2.0625 0.4375 2.0625 0.4375 4 1 C4 1.66 4 2.32 4 3 C4.72574219 3.2578125 5.45148438 3.515625 6.19921875 3.78125 C18.23905759 9.02034305 27.23379525 21.08448813 32 33 C32 33.66 32 34.32 32 35 C32.66 35 33.32 35 34 35 C33.67 36.65 33.34 38.3 33 40 C31.0859375 39.74609375 31.0859375 39.74609375 29 39 C28.1640625 37.28515625 28.1640625 37.28515625 27.625 35.0625 C24.11049489 23.26647488 15.78860174 12.99366763 5 7 C1.7750792 5.75675853 1.7750792 5.75675853 -1 5 C-1 1 -1 1 0 0 Z " fill="#4DA0AC" transform="translate(346,44)"/>
<path d="M0 0 C1.32 0.33 2.64 0.66 4 1 C3.40861109 6.22745557 0.92691857 10.48709513 -1.5 15.0625 C-1.9448877 15.90578857 -2.38977539 16.74907715 -2.84814453 17.61791992 C-6.11098892 23.6633707 -9.69421163 29.08852634 -13.9921875 34.45703125 C-16.17132968 37.21699538 -18.08203942 40.05425336 -20 43 C-21.32 42.67 -22.64 42.34 -24 42 C-23.67 40.35 -23.34 38.7 -23 37 C-22.01 37 -21.02 37 -20 37 C-19.74605469 36.43023437 -19.49210937 35.86046875 -19.23046875 35.2734375 C-17.85384171 32.72995515 -16.20847668 30.80779437 -14.3125 28.625 C-7.47098866 20.2037215 -3.0407132 10.37419796 0 0 Z " fill="#1A8596" transform="translate(409,128)"/>
<path d="M0 0 C0.66 0 1.32 0 2 0 C2.125 6.625 2.125 6.625 1 10 C2.98 10 4.96 10 7 10 C7.66 6.7 8.32 3.4 9 0 C9.99 0.33 10.98 0.66 12 1 C11.71681868 3.5636947 11.42377507 6.12561526 11.125 8.6875 C11.00705078 9.7693457 11.00705078 9.7693457 10.88671875 10.87304688 C10.4103949 14.88515932 9.73699858 18.29975512 8 22 C7.34 21.67 6.68 21.34 6 21 C5.875 15.25 5.875 15.25 7 13 C5.02 13.33 3.04 13.66 1 14 C0.34 16.64 -0.32 19.28 -1 22 C-1.99 21.67 -2.98 21.34 -4 21 C-3.71681868 18.4363053 -3.42377507 15.87438474 -3.125 13.3125 C-3.04636719 12.59126953 -2.96773437 11.87003906 -2.88671875 11.12695312 C-2.4103949 7.11484068 -1.73699858 3.70024488 0 0 Z " fill="#E1E1E1" transform="translate(162,133)"/>
<path d="M0 0 C11.22 0 22.44 0 34 0 C34 0.33 34 0.66 34 1 C33.07316406 1.06058594 32.14632812 1.12117188 31.19140625 1.18359375 C29.39509766 1.30927734 29.39509766 1.30927734 27.5625 1.4375 C26.36753906 1.51871094 25.17257813 1.59992187 23.94140625 1.68359375 C21.11429756 1.67656114 21.11429756 1.67656114 20 3 C18.58776052 3.18382456 17.16948956 3.32234273 15.75 3.4375 C10.56302203 3.82408647 10.56302203 3.82408647 6 6 C4.66415781 9.2611856 3.77901725 12.5672573 3 16 C2.01 16 1.02 16 0 16 C0 10.72 0 5.44 0 0 Z " fill="#E6E6E6" transform="translate(207,62)"/>
<path d="M0 0 C1.32 0.66 2.64 1.32 4 2 C4 7.28 4 12.56 4 18 C4.66 18.33 5.32 18.66 6 19 C5.01 19 4.02 19 3 19 C2.95101563 20.05960938 2.90203125 21.11921875 2.8515625 22.2109375 C2.77653291 23.59898497 2.70098515 24.98700451 2.625 26.375 C2.5940625 27.07367188 2.563125 27.77234375 2.53125 28.4921875 C2.2265625 33.7734375 2.2265625 33.7734375 0 36 C-2.125 35.625 -2.125 35.625 -4 35 C-4 33.68 -4 32.36 -4 31 C-3.34 31 -2.68 31 -2 31 C-1.19792202 25.37272277 -0.84473065 19.93054735 -0.875 14.25 C-0.87113281 13.50878906 -0.86726563 12.76757812 -0.86328125 12.00390625 C-0.84525731 7.89401477 -0.84525731 7.89401477 -1.63330078 3.88574219 C-1.75431152 3.26344727 -1.87532227 2.64115234 -2 2 C-1.34 1.34 -0.68 0.68 0 0 Z " fill="#439BAA" transform="translate(379,87)"/>
<path d="M0 0 C9.9932057 4.2218487 16.93001454 16.78375314 22 26 C23.30061527 29.294892 24.30403071 32.52815321 25 36 C24.34 36 23.68 36 23 36 C23 36.66 23 37.32 23 38 C20.12387956 36.56193978 20.07197082 34.81658786 19.0625 31.8125 C16.48955234 24.51622143 13.42184893 19.03428382 8.5234375 13.05078125 C7 11 7 11 6 8 C5.34 8 4.68 8 4 8 C4 7.34 4 6.68 4 6 C3.34 6 2.68 6 2 6 C2 5.34 2 4.68 2 4 C1.01 3.67 0.02 3.34 -1 3 C-0.67 2.01 -0.34 1.02 0 0 Z " fill="#1A8290" transform="translate(371,41)"/>
<path d="M0 0 C1.65 0.33 3.3 0.66 5 1 C5 1.99 5 2.98 5 4 C5.66 4.226875 6.32 4.45375 7 4.6875 C9.46742767 5.76699961 11.15212501 6.78922007 13.3125 8.3125 C18.53345002 11.69311514 24.37570738 13.16506007 30.29296875 14.88671875 C33.28790531 15.78614648 36.12628318 16.77797285 39 18 C39 18.33 39 18.66 39 19 C26.9800532 20.22098782 17.14355052 15.22369099 7.4375 8.55078125 C5.03904806 6.90498658 5.03904806 6.90498658 2.25 5.98046875 C1.5075 5.65691406 0.765 5.33335937 0 5 C-0.33 4.01 -0.66 3.02 -1 2 C-0.67 1.34 -0.34 0.68 0 0 Z " fill="#1C8B9A" transform="translate(273,151)"/>
<path d="M0 0 C5.70065376 0.48610226 9.6769347 2.06908492 14.625 4.875 C15.26695312 5.22691406 15.90890625 5.57882813 16.5703125 5.94140625 C20.09420668 7.8838807 23.56333845 9.90640159 27 12 C26.67 12.99 26.34 13.98 26 15 C25.01 15.33 24.02 15.66 23 16 C21.5 14.625 21.5 14.625 20 13 C20 12.34 20 11.68 20 11 C16.68885166 9.87119943 13.41021743 8.78697325 10 8 C9.67 9.65 9.34 11.3 9 13 C7.35 13 5.7 13 4 13 C3.67 12.01 3.34 11.02 3 10 C3.7115625 9.3503125 3.7115625 9.3503125 4.4375 8.6875 C6.23686957 6.97690387 6.23686957 6.97690387 7 4 C4.69 3.34 2.38 2.68 0 2 C0 1.34 0 0.68 0 0 Z " fill="#1F99AF" transform="translate(353,12)"/>
<path d="M0 0 C0.86625 0.825 1.7325 1.65 2.625 2.5 C10.02046071 8.826056 19.31634952 14.45061592 29 16 C28.67 17.65 28.34 19.3 28 21 C26.35 20.67 24.7 20.34 23 20 C23 19.34 23 18.68 23 18 C22.30003906 17.90460938 21.60007812 17.80921875 20.87890625 17.7109375 C17.4597078 16.86657642 14.95560308 15.43357252 11.9375 13.625 C10.91527344 13.01914063 9.89304687 12.41328125 8.83984375 11.7890625 C6.45673733 10.28773824 4.23760687 8.70413768 2 7 C0.68163705 6.30419733 -0.64791086 5.62775567 -2 5 C-1.125 1.125 -1.125 1.125 0 0 Z " fill="#1C8D9C" transform="translate(259,171)"/>
<path d="M0 0 C1.67542976 0.28604898 3.34385343 0.61781233 5 1 C4.76953125 2.91796875 4.76953125 2.91796875 4 5 C2.13671875 5.80078125 2.13671875 5.80078125 -0.3125 6.3125 C-9.30949484 8.69101588 -17.68811908 13.22188866 -23 21 C-24.32 20.67 -25.64 20.34 -27 20 C-27 18.68 -27 17.36 -27 16 C-25.865625 15.46375 -24.73125 14.9275 -23.5625 14.375 C-19.57927717 12.3904013 -15.98260631 10.03558154 -12.31640625 7.5234375 C-9.22377756 5.48949957 -6.01008726 3.72936973 -2.75 1.98046875 C-1.03077484 1.12119615 -1.03077484 1.12119615 0 0 Z " fill="#2195A6" transform="translate(292,25)"/>
<path d="M0 0 C3.63 0 7.26 0 11 0 C11 0.99 11 1.98 11 3 C8.03 3 5.06 3 2 3 C1.67 5.31 1.34 7.62 1 10 C3.31 10 5.62 10 8 10 C8 10.99 8 11.98 8 13 C5.69 13.33 3.38 13.66 1 14 C0.34 16.31 -0.32 18.62 -1 21 C-1.99 21 -2.98 21 -4 21 C-3.71681868 18.4363053 -3.42377507 15.87438474 -3.125 13.3125 C-3.04636719 12.59126953 -2.96773437 11.87003906 -2.88671875 11.12695312 C-2.80292969 10.42119141 -2.71914063 9.71542969 -2.6328125 8.98828125 C-2.55949707 8.34415283 -2.48618164 7.70002441 -2.41064453 7.03637695 C-2 5 -2 5 0 0 Z " fill="#E2E2E2" transform="translate(30,133)"/>
<path d="M0 0 C0 1.32 0 2.64 0 4 C-2.97 3.505 -2.97 3.505 -6 3 C-5.55530671 8.03985731 -3.28656638 10.37634988 0 14 C-0.92289944 17.18819807 -1.48262102 18.66440282 -4.3125 20.5 C-7 21 -7 21 -9.8125 19.8125 C-10.534375 19.214375 -11.25625 18.61625 -12 18 C-12 17.01 -12 16.02 -12 15 C-9.36 15.66 -6.72 16.32 -4 17 C-5.03839484 13.9713484 -6.03219737 11.96212074 -8.125 9.5 C-10 7 -10 7 -10.4375 4.375 C-10 2 -10 2 -8.9375 0.125 C-5.88430685 -1.64782183 -3.33588292 -0.69235306 0 0 Z " fill="#DADADA" transform="translate(106,134)"/>
<path d="M0 0 C1.65 0 3.3 0 5 0 C5 1.65 5 3.3 5 5 C4.46632813 5.15855469 3.93265625 5.31710938 3.3828125 5.48046875 C-1.90874862 7.13751471 -6.73142467 9.24148255 -11.640625 11.81640625 C-15.82527922 13.9156616 -19.08362814 15.26616035 -23.8125 15.125 C-24.60269531 15.10695312 -25.39289063 15.08890625 -26.20703125 15.0703125 C-26.79871094 15.04710937 -27.39039063 15.02390625 -28 15 C-27.67 14.34 -27.34 13.68 -27 13 C-26.319375 12.86464844 -25.63875 12.72929687 -24.9375 12.58984375 C-21.01567236 11.8023491 -17.63102309 10.20717928 -14 8.5625 C-12.60447279 7.93811744 -11.20864618 7.31440355 -9.8125 6.69140625 C-8.83023437 6.24692139 -8.83023437 6.24692139 -7.828125 5.79345703 C-6.26732713 5.1160274 -4.66724555 4.53034584 -3.0625 3.96484375 C-2.381875 3.64644531 -1.70125 3.32804688 -1 3 C-0.67 2.01 -0.34 1.02 0 0 Z " fill="#2392A5" transform="translate(370,178)"/>
<path d="M0 0 C0.99 0.66 1.98 1.32 3 2 C2.46233663 8.74461265 1.0789421 14.65804789 -1.0625 21.0625 C-1.34416016 21.92810547 -1.62582031 22.79371094 -1.91601562 23.68554688 C-2.60298435 25.79302719 -3.29770066 27.8975895 -4 30 C-5.65 29.67 -7.3 29.34 -9 29 C-9 27.68 -9 26.36 -9 25 C-8.55914062 24.58363281 -8.11828125 24.16726562 -7.6640625 23.73828125 C-5.0908391 21.05028967 -4.40069413 17.67929205 -3.375 14.1875 C-3.1584375 13.48818359 -2.941875 12.78886719 -2.71875 12.06835938 C-1.50653593 8.06880121 -0.58611228 4.14837247 0 0 Z " fill="#1E8695" transform="translate(404,112)"/>
<path d="M0 0 C0.9075 0.185625 1.815 0.37125 2.75 0.5625 C5.68314324 0.95734621 7.2644657 0.94691572 10 0 C11.125 1.5625 11.125 1.5625 12 4 C11.125 7.75 11.125 7.75 10 11 C8.35 11.33 6.7 11.66 5 12 C3.4375 10.25 3.4375 10.25 2 8 C2.3125 5.75 2.3125 5.75 3 4 C1.68 3.67 0.36 3.34 -1 3 C-0.67 2.01 -0.34 1.02 0 0 Z " fill="#E0E0E0" transform="translate(189,143)"/>
<path d="M0 0 C1.258125 -0.04125 2.51625 -0.0825 3.8125 -0.125 C4.52019531 -0.14820313 5.22789062 -0.17140625 5.95703125 -0.1953125 C8 0 8 0 11 2 C10.64766839 7.4611399 10.64766839 7.4611399 10 10 C7.9375 11.5 7.9375 11.5 6 12 C4 10.8125 4 10.8125 2 9 C1.75 6.3125 1.75 6.3125 2 4 C1.34 3.67 0.68 3.34 0 3 C-0.33 3.66 -0.66 4.32 -1 5 C-0.67 3.35 -0.34 1.7 0 0 Z " fill="#D0D0D0" transform="translate(140,143)"/>
<path d="M0 0 C0.66 0 1.32 0 2 0 C1.67 3.3 1.34 6.6 1 10 C1.99 10.33 2.98 10.66 4 11 C3.67 11.66 3.34 12.32 3 13 C2.01 13 1.02 13 0 13 C-0.33 15.64 -0.66 18.28 -1 21 C-1.99 21 -2.98 21 -4 21 C-4 18.69 -4 16.38 -4 14 C-4.66 13.67 -5.32 13.34 -6 13 C-5.67 12.01 -5.34 11.02 -5 10 C-4.01 10 -3.02 10 -2 10 C-1.93941406 9.36191406 -1.87882812 8.72382813 -1.81640625 8.06640625 C-1.73261719 7.24011719 -1.64882812 6.41382813 -1.5625 5.5625 C-1.48128906 4.73878906 -1.40007812 3.91507813 -1.31640625 3.06640625 C-1 1 -1 1 0 0 Z " fill="#C9C9C9" transform="translate(111,133)"/>
<path d="M0 0 C1.65 0 3.3 0 5 0 C4.78125 2.37109375 4.78125 2.37109375 4 5 C2.03125 6.22265625 2.03125 6.22265625 -0.5 7.0625 C-4.03193601 8.29867761 -7.38227544 9.61768452 -10.75 11.25 C-14.29939613 12.86393501 -17.05233331 13.40488889 -21 13 C-20.34 12.67 -19.68 12.34 -19 12 C-19 11.34 -19 10.68 -19 10 C-17.93072266 9.63648438 -17.93072266 9.63648438 -16.83984375 9.265625 C-7.10137759 6.42651978 -7.10137759 6.42651978 0 0 Z " fill="#208D9D" transform="translate(360,164)"/>
<path d="M0 0 C2.41015625 0.19140625 2.41015625 0.19140625 5 1 C6.37109375 2.71484375 6.37109375 2.71484375 7.4375 4.9375 C9.67410596 9.41071193 12.22498634 13.55348896 14.9609375 17.73828125 C16 20 16 20 15.6640625 22.29296875 C15.44492187 22.85628906 15.22578125 23.41960938 15 24 C14.67 22.68 14.34 21.36 14 20 C13.34 20 12.68 20 12 20 C10.34375 17.69921875 10.34375 17.69921875 8.5 14.6875 C7.8915625 13.70136719 7.283125 12.71523438 6.65625 11.69921875 C6.1096875 10.80847656 5.563125 9.91773438 5 9 C3.27773504 5.75150023 3.27773504 5.75150023 0 5 C-0.75 3 -0.75 3 -1 1 C-0.67 0.67 -0.34 0.34 0 0 Z " fill="#197C8F" transform="translate(391,38)"/>
<path d="M0 0 C1.65 0.33 3.3 0.66 5 1 C5 8.26 5 15.52 5 23 C4.34 23 3.68 23 3 23 C3 24.65 3 26.3 3 28 C2.67 28 2.34 28 2 28 C1.98018066 27.34402832 1.96036133 26.68805664 1.93994141 26.01220703 C1.84487493 23.04938931 1.73512248 20.08729468 1.625 17.125 C1.5940625 16.09246094 1.563125 15.05992188 1.53125 13.99609375 C1.49257813 13.00996094 1.45390625 12.02382812 1.4140625 11.0078125 C1.3826416 10.09660645 1.3512207 9.18540039 1.31884766 8.24658203 C1.20117489 5.80068814 1.20117489 5.80068814 -1 4 C-0.625 1.875 -0.625 1.875 0 0 Z " fill="#148499" transform="translate(395,85)"/>
<path d="M0 0 C1.65 0.33 3.3 0.66 5 1 C5 4.63 5 8.26 5 12 C2.69 12 0.38 12 -2 12 C-2.05395478 10.37536158 -2.09277195 8.75021459 -2.125 7.125 C-2.14820312 6.22007813 -2.17140625 5.31515625 -2.1953125 4.3828125 C-2 2 -2 2 0 0 Z " fill="#010101" transform="translate(111,83)"/>
<path d="M0 0 C2.0625 0.4375 2.0625 0.4375 4 1 C4 1.66 4 2.32 4 3 C4.71542969 3.24492188 5.43085938 3.48984375 6.16796875 3.7421875 C9.34583121 5.15359676 11.63646999 6.91281519 14.3125 9.125 C15.19550781 9.84945312 16.07851563 10.57390625 16.98828125 11.3203125 C17.98408203 12.15175781 17.98408203 12.15175781 19 13 C18.01 13.495 18.01 13.495 17 14 C16.67 14.66 16.34 15.32 16 16 C15.443125 15.45730469 14.88625 14.91460937 14.3125 14.35546875 C9.40249264 9.75233685 5.47465602 6.8835363 -1 5 C-1 1 -1 1 0 0 Z " fill="#3799A7" transform="translate(346,44)"/>
<path d="M0 0 C3.53571429 0.53571429 3.53571429 0.53571429 5 2 C5.07205511 3.68608966 5.08386068 5.37500659 5.0625 7.0625 C5.05347656 7.98160156 5.04445313 8.90070313 5.03515625 9.84765625 C5.02355469 10.55792969 5.01195312 11.26820312 5 12 C2.69 12 0.38 12 -2 12 C-2.05395478 10.37536158 -2.09277195 8.75021459 -2.125 7.125 C-2.14820313 6.22007813 -2.17140625 5.31515625 -2.1953125 4.3828125 C-2 2 -2 2 0 0 Z " fill="#010101" transform="translate(343,83)"/>
<path d="M0 0 C0.99 0 1.98 0 3 0 C3.33 1.98 3.66 3.96 4 6 C2.35 6 0.7 6 -1 6 C-1 6.66 -1 7.32 -1 8 C-1.66 8 -2.32 8 -3 8 C-3.28875 8.5775 -3.5775 9.155 -3.875 9.75 C-4.91666667 11.83333333 -5.95833333 13.91666667 -7 16 C-8.65 16 -10.3 16 -12 16 C-12.33 15.01 -12.66 14.02 -13 13 C-12.50628906 12.66226563 -12.01257813 12.32453125 -11.50390625 11.9765625 C-10.86324219 11.53054687 -10.22257812 11.08453125 -9.5625 10.625 C-8.92441406 10.18414062 -8.28632813 9.74328125 -7.62890625 9.2890625 C-5.86259072 8.07839147 -5.86259072 8.07839147 -5 6 C-4.34 6 -3.68 6 -3 6 C-2.690625 5.38125 -2.38125 4.7625 -2.0625 4.125 C-1.375 2.75 -0.6875 1.375 0 0 Z " fill="#1E91A5" transform="translate(382,145)"/>
<path d="M0 0 C-4.00562976 3.32032925 -8.41253191 4.86367114 -13.22265625 6.71875 C-15.83141207 7.92222666 -17.0422426 9.00096458 -19 11 C-21.6875 10.6875 -21.6875 10.6875 -24 10 C-23.70947266 8.10644531 -23.70947266 8.10644531 -23 6 C-20.42637687 4.69219151 -18.07797042 3.6943533 -15.375 2.75 C-14.32505859 2.3478125 -14.32505859 2.3478125 -13.25390625 1.9375 C-8.64303448 0.26081936 -4.89813321 -0.28283184 0 0 Z " fill="#2699AD" transform="translate(306,33)"/>
<path d="M0 0 C0 0.66 0 1.32 0 2 C-13.6332574 6.22323462 -13.6332574 6.22323462 -20 8 C-20.66 7.34 -21.32 6.68 -22 6 C-21.625 3.875 -21.625 3.875 -21 2 C-19.2675 2.061875 -19.2675 2.061875 -17.5 2.125 C-14.42652018 2.13587957 -11.77786138 1.80205965 -8.8125 1 C-5.62141407 0.16299385 -3.25199789 -0.20324987 0 0 Z " fill="#289FB0" transform="translate(346,165)"/>
<path d="M0 0 C0.99 0.33 1.98 0.66 3 1 C3 1.66 3 2.32 3 3 C2.24074219 3.38671875 1.48148437 3.7734375 0.69921875 4.171875 C-0.29464844 4.69265625 -1.28851563 5.2134375 -2.3125 5.75 C-3.29863281 6.26046875 -4.28476562 6.7709375 -5.30078125 7.296875 C-7.95450276 8.97129263 -9.33102197 10.37976145 -11 13 C-12.32 12.67 -13.64 12.34 -15 12 C-14.9375 9.6875 -14.9375 9.6875 -14 7 C-10.875 5.4375 -10.875 5.4375 -8.9765625 4.76171875 C-6.89056299 3.95782566 -5.14448744 2.93103153 -3.25 1.75 C-2.1775 1.1725 -1.105 0.595 0 0 Z " fill="#208D9E" transform="translate(294,44)"/>
<path d="M0 0 C1.5 1.3125 1.5 1.3125 3 3 C3 3.99 3 4.98 3 6 C3.66 6 4.32 6 5 6 C6.5078125 7.609375 6.5078125 7.609375 8.125 9.75 C8.66382813 10.44609375 9.20265625 11.1421875 9.7578125 11.859375 C11 14 11 14 11 18 C9.68 18.33 8.36 18.66 7 19 C6.67128906 18.18208984 6.67128906 18.18208984 6.3359375 17.34765625 C3.83960118 11.41124671 0.72123348 6.2469392 -3 1 C-2.01 0.67 -1.02 0.34 0 0 Z " fill="#167C8F" transform="translate(388,45)"/>
<path d="M0 0 C0.99 0.33 1.98 0.66 3 1 C3 2.65 3 4.3 3 6 C4.65 5.01 6.3 4.02 8 3 C8 5.64 8 8.28 8 11 C7.01 11 6.02 11 5 11 C4.319375 11.20625 3.63875 11.4125 2.9375 11.625 C2.298125 11.74875 1.65875 11.8725 1 12 C-1 10 -1 10 -1.23046875 8.125 C-1.21628906 7.42375 -1.20210937 6.7225 -1.1875 6 C-1.18105469 5.29875 -1.17460938 4.5975 -1.16796875 3.875 C-1 2 -1 2 0 0 Z " fill="#DADADA" transform="translate(40,143)"/>
<path d="M0 0 C1.65 0 3.3 0 5 0 C5 2.97 5 5.94 5 9 C3.68 9 2.36 9 1 9 C-0.3303125 9.2784375 -0.3303125 9.2784375 -1.6875 9.5625 C-2.450625 9.706875 -3.21375 9.85125 -4 10 C-5 9 -5 9 -5.0625 6.4375 C-5.041875 5.633125 -5.02125 4.82875 -5 4 C-4.01 3.67 -3.02 3.34 -2 3 C-2 3.99 -2 4.98 -2 6 C-1.34 6 -0.68 6 0 6 C0 4.02 0 2.04 0 0 Z " fill="#D9D9D9" transform="translate(118,145)"/>
<path d="M0 0 C-0.875 7.75 -0.875 7.75 -2 10 C-11.41002278 9.03644647 -11.41002278 9.03644647 -16 8 C-15.34 7.01 -14.68 6.02 -14 5 C-11.03 5.33 -8.06 5.66 -5 6 C-4.34 4.35 -3.68 2.7 -3 1 C-4.32 0.67 -5.64 0.34 -7 0 C-3.86650268 -1.04449911 -3.01031744 -0.93423645 0 0 Z " fill="#1A8192" transform="translate(347,18)"/>
<path d="M0 0 C2.8712936 0.25568326 5.70565708 0.56806088 8.5625 0.9375 C9.36880859 1.03740234 10.17511719 1.13730469 11.00585938 1.24023438 C13.00452132 1.48858882 15.00234487 1.7436731 17 2 C17.33 2.99 17.66 3.98 18 5 C12.06 5 6.12 5 0 5 C-0.33 3.68 -0.66 2.36 -1 1 C-0.67 0.67 -0.34 0.34 0 0 Z " fill="#23B3C7" transform="translate(301,192)"/>
<path d="M0 0 C-2.76223278 2.76223278 -5.20706617 2.57856291 -9 3 C-8.72965366 5.43717258 -8.72965366 5.43717258 -8 8 C-7.01 8.66 -6.02 9.32 -5 10 C-6.65 10.33 -8.3 10.66 -10 11 C-8.35 11 -6.7 11 -5 11 C-6.875 12.0625 -6.875 12.0625 -9 13 C-11 12 -11 12 -12.1875 9.25 C-13.01105448 5.95578208 -12.94405381 4.20978295 -12 1 C-7.58774263 -0.47075246 -4.51718381 -1.36884358 0 0 Z " fill="#1F879A" transform="translate(352,182)"/>
<path d="M0 0 C1.796875 0.109375 1.796875 0.109375 4 1 C5.703125 3.765625 5.703125 3.765625 7.25 7.25 C7.77078125 8.38953125 8.2915625 9.5290625 8.828125 10.703125 C9.9172674 13.76724562 10.26501567 15.79571959 10 19 C9.67 18.34 9.34 17.68 9 17 C8.34 17 7.68 17 7 17 C6.51080078 15.84371094 6.51080078 15.84371094 6.01171875 14.6640625 C5.35623047 13.15972656 5.35623047 13.15972656 4.6875 11.625 C4.25824219 10.62726563 3.82898438 9.62953125 3.38671875 8.6015625 C2.1261594 5.74225492 2.1261594 5.74225492 -1 4 C-0.67 2.68 -0.34 1.36 0 0 Z " fill="#3C92A0" transform="translate(376,60)"/>
<path d="M0 0 C1.65 0.33 3.3 0.66 5 1 C5 1.99 5 2.98 5 4 C5.680625 4.2475 6.36125 4.495 7.0625 4.75 C10.56865083 6.24197908 13.71620368 8.06835511 17 10 C16.67 10.66 16.34 11.32 16 12 C11.59058293 11.5991439 9.12841086 9.79538875 5.71484375 7.2109375 C3.60465737 5.72082866 1.44398874 4.81466291 -1 4 C-0.67 2.68 -0.34 1.36 0 0 Z " fill="#209AAF" transform="translate(269,159)"/>
<path d="M0 0 C1.67128932 2.94381488 2.27731759 5.17383394 2.4140625 8.546875 C2.45273437 9.39121094 2.49140625 10.23554687 2.53125 11.10546875 C2.5621875 11.97816406 2.593125 12.85085937 2.625 13.75 C2.66367187 14.63816406 2.70234375 15.52632812 2.7421875 16.44140625 C2.83620873 18.6273998 2.92186143 20.81339062 3 23 C2.01 23.33 1.02 23.66 0 24 C-0.33695862 21.27123692 -0.66968429 18.54206837 -1 15.8125 C-1.09539062 15.04357422 -1.19078125 14.27464844 -1.2890625 13.48242188 C-2.28716605 5.17677446 -2.28716605 5.17677446 -2 2 C-1.34 1.34 -0.68 0.68 0 0 Z " fill="#197689" transform="translate(413,75)"/>
<path d="M0 0 C2.41802195 0.28270406 4.8340122 0.57579264 7.25 0.875 C7.93191406 0.95363281 8.61382812 1.03226563 9.31640625 1.11328125 C12.90696311 1.56645833 15.892507 2.09385738 19 4 C15.73401767 4.9882878 12.83912563 5.07404899 9.4375 5 C6.18889281 4.92947393 4.10792434 4.96402522 1 6 C0.34 5.67 -0.32 5.34 -1 5 C-0.67 3.35 -0.34 1.7 0 0 Z " fill="#1E92A2" transform="translate(318,29)"/>
<path d="M0 0 C0.598125 0.20625 1.19625 0.4125 1.8125 0.625 C0.9375 5.5 0.9375 5.5 -0.1875 6.625 C0.4725 7.285 1.1325 7.945 1.8125 8.625 C0.625 10.1875 0.625 10.1875 -1.1875 11.625 C-3.875 11.3125 -3.875 11.3125 -6.1875 10.625 C-5.8575 9.635 -5.5275 8.645 -5.1875 7.625 C-4.5275 7.625 -3.8675 7.625 -3.1875 7.625 C-3.1875 5.975 -3.1875 4.325 -3.1875 2.625 C-3.8475 2.295 -4.5075 1.965 -5.1875 1.625 C-2.1875 -0.375 -2.1875 -0.375 0 0 Z " fill="#D0D0D0" transform="translate(84.1875,143.375)"/>
<path d="M0 0 C0.99 0 1.98 0 3 0 C1.97194549 5.71141393 0.20921653 8.2480995 -4.24609375 11.93359375 C-6 13 -6 13 -9 13 C-9 12.34 -9 11.68 -9 11 C-10.65 11 -12.3 11 -14 11 C-14 10.67 -14 10.34 -14 10 C-13.40832031 9.9484375 -12.81664063 9.896875 -12.20703125 9.84375 C-7.19330192 9.17411327 -7.19330192 9.17411327 -3.39453125 6.0859375 C-2.1068785 3.90599283 -2.1068785 3.90599283 -1.0703125 1.6796875 C-0.71710938 1.12539062 -0.36390625 0.57109375 0 0 Z " fill="#D5D5D5" transform="translate(126,107)"/>
<path d="M0 0 C7.11513755 -0.53699151 12.44995746 1.30292366 19 4 C19 4.99 19 5.98 19 7 C14.54856736 6.35731596 10.41118353 5.29333357 6.125 3.9375 C4.97257812 3.57527344 3.82015625 3.21304688 2.6328125 2.83984375 C1.76398438 2.56269531 0.89515625 2.28554688 0 2 C0 1.34 0 0.68 0 0 Z " fill="#2396A9" transform="translate(333,33)"/>
<path d="M0 0 C0 2.97 0 5.94 0 9 C-2.3260857 9.38063221 -4.66055264 9.71269945 -7 10 C-8 9 -8 9 -8.09765625 7.15234375 C-8.06510417 5.1015625 -8.03255208 3.05078125 -8 1 C-7.67 2.32 -7.34 3.64 -7 5 C-6.030625 4.175 -5.06125 3.35 -4.0625 2.5 C-1 0 -1 0 0 0 Z " fill="#E5E5E5" transform="translate(67,145)"/>
<path d="M0 0 C1.65 0 3.3 0 5 0 C5.02689216 1.47906892 5.04634621 2.95827483 5.0625 4.4375 C5.07410156 5.26121094 5.08570313 6.08492187 5.09765625 6.93359375 C5 9 5 9 4 10 C2.31391034 10.07205511 0.62499341 10.08386068 -1.0625 10.0625 C-1.98160156 10.05347656 -2.90070313 10.04445312 -3.84765625 10.03515625 C-4.55792969 10.02355469 -5.26820313 10.01195312 -6 10 C-5.67 9.01 -5.34 8.02 -5 7 C-3.35 7 -1.7 7 0 7 C0.66 5.02 1.32 3.04 2 1 C1.34 0.67 0.68 0.34 0 0 Z " fill="#178A9C" transform="translate(313,161)"/>
<path d="M0 0 C-0.21484375 1.859375 -0.21484375 1.859375 -1 4 C-3.06640625 5.265625 -3.06640625 5.265625 -5.5625 6.25 C-6.38878906 6.58515625 -7.21507812 6.9203125 -8.06640625 7.265625 C-8.70449219 7.50796875 -9.34257812 7.7503125 -10 8 C-10.99 7.01 -11.98 6.02 -13 5 C-12.67 4.01 -12.34 3.02 -12 2 C-10.37548581 1.66430703 -8.75037083 1.3315204 -7.125 1 C-6.22007812 0.814375 -5.31515625 0.62875 -4.3828125 0.4375 C-2 0 -2 0 0 0 Z " fill="#18B4C2" transform="translate(345,155)"/>
<path d="M0 0 C1.67542976 0.28604898 3.34385343 0.61781233 5 1 C4.67 2.32 4.34 3.64 4 5 C0.04 5 -3.92 5 -8 5 C-8.33 4.01 -8.66 3.02 -9 2 C-6.94921875 1.77213542 -4.8984375 1.54427083 -2.84765625 1.31640625 C-0.98859771 1.18113386 -0.98859771 1.18113386 0 0 Z " fill="#23B4C3" transform="translate(331,192)"/>
<path d="M0 0 C1.67542976 0.28604898 3.34385343 0.61781233 5 1 C4.67 2.32 4.34 3.64 4 5 C0.04 5 -3.92 5 -8 5 C-8 4.01 -8 3.02 -8 2 C-6.865625 1.855625 -5.73125 1.71125 -4.5625 1.5625 C-1.19222799 1.38828522 -1.19222799 1.38828522 0 0 Z " fill="#1DB3C9" transform="translate(329,184)"/>
<path d="M0 0 C0.66 0.33 1.32 0.66 2 1 C1.67 3.97 1.34 6.94 1 10 C1.66 10 2.32 10 3 10 C3 10.66 3 11.32 3 12 C1.68 12 0.36 12 -1 12 C-1.33 12.99 -1.66 13.98 -2 15 C-2 14.01 -2 13.02 -2 12 C-2.99 11.67 -3.98 11.34 -5 11 C-4.01 11 -3.02 11 -2 11 C-2.04125 9.741875 -2.0825 8.48375 -2.125 7.1875 C-2.2390374 3.70935927 -2.05925681 3.08888522 0 0 Z " fill="#E5E5E5" transform="translate(55,133)"/>
<path d="M0 0 C6.43681228 0.51085812 11.95942424 1.72942897 18 4 C18 4.33 18 4.66 18 5 C11.52716457 5.35164297 6.73439187 5.17221678 1 2 C0.67 1.34 0.34 0.68 0 0 Z " fill="#289BB0" transform="translate(294,165)"/>
<path d="M0 0 C0.99 0.33 1.98 0.66 3 1 C1.25518455 5.53652018 -0.11964186 8.87067892 -4 12 C-4.66 12 -5.32 12 -6 12 C-6.33 11.01 -6.66 10.02 -7 9 C-6.21625 8.2575 -5.4325 7.515 -4.625 6.75 C-2.43495469 4.45566682 -1.17268614 2.87841142 0 0 Z " fill="#DBDBDB" transform="translate(358,107)"/>
<path d="M0 0 C1.0828125 0.37125 1.0828125 0.37125 2.1875 0.75 C2.5175 4.05 2.8475 7.35 3.1875 10.75 C2.8575 10.75 2.5275 10.75 2.1875 10.75 C1.8575 7.78 1.5275 4.81 1.1875 1.75 C-0.4625 1.75 -2.1125 1.75 -3.8125 1.75 C-3.626875 2.36875 -3.44125 2.9875 -3.25 3.625 C-2.8125 5.75 -2.8125 5.75 -3.8125 7.75 C-4.4725 7.75 -5.1325 7.75 -5.8125 7.75 C-6.4725 6.43 -7.1325 5.11 -7.8125 3.75 C-3.50480769 -0.31153846 -3.50480769 -0.31153846 0 0 Z " fill="#C3C3C3" transform="translate(121.8125,143.25)"/>
<path d="M0 0 C2.64 0 5.28 0 8 0 C7.01 0.33 6.02 0.66 5 1 C5 3.97 5 6.94 5 10 C4.01 10 3.02 10 2 10 C2 7.69 2 5.38 2 3 C1.34 2.67 0.68 2.34 0 2 C0 1.34 0 0.68 0 0 Z " fill="#DCDCDC" transform="translate(105,144)"/>
<path d="M0 0 C-0.33 1.65 -0.66 3.3 -1 5 C-2.32 5 -3.64 5 -5 5 C-5 4.34 -5 3.68 -5 3 C-5.66 3 -6.32 3 -7 3 C-7 2.34 -7 1.68 -7 1 C-7.66 0.67 -8.32 0.34 -9 0 C-5.62182575 -0.84454356 -3.32534757 -1.10844919 0 0 Z " fill="#17A1BC" transform="translate(302,174)"/>
<path d="M0 0 C0.66 0.33 1.32 0.66 2 1 C3.54023996 1.06950541 5.08334988 1.08452357 6.625 1.0625 C7.44226562 1.05347656 8.25953125 1.04445312 9.1015625 1.03515625 C9.72804688 1.02355469 10.35453125 1.01195312 11 1 C11 1.33 11 1.66 11 2 C8.69 2.33 6.38 2.66 4 3 C3.34 5.31 2.68 7.62 2 10 C1.01 10 0.02 10 -1 10 C-0.67 6.7 -0.34 3.4 0 0 Z " fill="#D6D6D6" transform="translate(27,144)"/>
<path d="M0 0 C1.258125 -0.04125 2.51625 -0.0825 3.8125 -0.125 C4.52019531 -0.14820313 5.22789062 -0.17140625 5.95703125 -0.1953125 C8 0 8 0 11 2 C10.67 2.99 10.34 3.98 10 5 C8.68 4.67 7.36 4.34 6 4 C6 3.34 6 2.68 6 2 C5.01 2 4.02 2 3 2 C2.67 2.66 2.34 3.32 2 4 C1.34 3.67 0.68 3.34 0 3 C-0.33 3.66 -0.66 4.32 -1 5 C-0.67 3.35 -0.34 1.7 0 0 Z " fill="#B2B2B2" transform="translate(140,143)"/>
<path d="M0 0 C4.2742558 1.5830577 6.26531794 4.50568404 9 8 C8.01 8.66 7.02 9.32 6 10 C4.99106869 8.90398831 3.99311775 7.79786082 3 6.6875 C2.1646875 5.76517578 2.1646875 5.76517578 1.3125 4.82421875 C0 3 0 3 0 0 Z " fill="#4B9FAE" transform="translate(363,58)"/>
<path d="M0 0 C2.62187494 1.04874998 3.79371361 1.64931313 5.25 4.125 C5.4975 4.74375 5.745 5.3625 6 6 C5.34 6.66 4.68 7.32 4 8 C1.875 7.625 1.875 7.625 0 7 C0 4.69 0 2.38 0 0 Z " fill="#1DAFCB" transform="translate(394,56)"/>
<path d="M0 0 C-2.59391142 1.40503535 -5.26973914 2.57705808 -8 3.6875 C-8.66 3.95949219 -9.32 4.23148438 -10 4.51171875 C-12.34543601 5.08433496 -13.73437404 4.75352292 -16 4 C-15.34 4 -14.68 4 -14 4 C-14 3.34 -14 2.68 -14 2 C-9.07262981 0.02905192 -5.21979128 -0.1799928 0 0 Z " fill="#2095A3" transform="translate(311,41)"/>
<path d="M0 0 C1.93742341 -0.02703381 3.87495479 -0.04641125 5.8125 -0.0625 C6.89144531 -0.07410156 7.97039062 -0.08570313 9.08203125 -0.09765625 C12 0 12 0 15 1 C15 1.66 15 2.32 15 3 C9.47322267 3.19392201 5.24385089 2.7479503 0 1 C0 0.67 0 0.34 0 0 Z " fill="#269EB1" transform="translate(328,15)"/>
<path d="M0 0 C0.125 2.375 0.125 2.375 0 5 C-0.66 5.66 -1.32 6.32 -2 7 C-4.125 6.625 -4.125 6.625 -6 6 C-5.67 4.35 -5.34 2.7 -5 1 C-2 0 -2 0 0 0 Z " fill="#1FB4C9" transform="translate(391,164)"/>
<path d="M0 0 C0.99 0 1.98 0 3 0 C3.33 0.99 3.66 1.98 4 3 C5.65 2.34 7.3 1.68 9 1 C8.67 1.66 8.34 2.32 8 3 C8.66 3.66 9.32 4.32 10 5 C9.21625 5.268125 8.4325 5.53625 7.625 5.8125 C4.71885077 6.84814432 4.71885077 6.84814432 3 10 C1.5216774 7.04335481 1.93967217 4.25770263 2 1 C1.34 0.67 0.68 0.34 0 0 Z " fill="#CFCFCF" transform="translate(175,80)"/>
<path d="M0 0 C0.33 0.66 0.66 1.32 1 2 C3.12576782 2.46651207 3.12576782 2.46651207 5.5625 2.625 C6.38878906 2.69976562 7.21507812 2.77453125 8.06640625 2.8515625 C8.70449219 2.90054688 9.34257812 2.94953125 10 3 C10 3.99 10 4.98 10 6 C6.7 5.67 3.4 5.34 0 5 C0 3.35 0 1.7 0 0 Z " fill="#228D9D" transform="translate(309,183)"/>
<path d="M0 0 C1.65 0.33 3.3 0.66 5 1 C5.33 2.65 5.66 4.3 6 6 C4.35 6 2.7 6 1 6 C-0.0625 4.125 -0.0625 4.125 -1 2 C-0.67 1.34 -0.34 0.68 0 0 Z " fill="#19A9C2" transform="translate(273,151)"/>
<path d="M0 0 C0 2.64 0 5.28 0 8 C-3 8 -3 8 -6 6 C-3.4 0 -3.4 0 0 0 Z " fill="#E6E6E6" transform="translate(48,146)"/>
<path d="M0 0 C1.67542976 0.28604898 3.34385343 0.61781233 5 1 C3.02 5.455 3.02 5.455 1 10 C0.34 10 -0.32 10 -1 10 C-1.02689216 8.52093108 -1.04634621 7.04172517 -1.0625 5.5625 C-1.07410156 4.73878906 -1.08570313 3.91507813 -1.09765625 3.06640625 C-1 1 -1 1 0 0 Z " fill="#E4E4E4" transform="translate(185,143)"/>
<path d="M0 0 C-0.50603992 2.16874252 -0.99983813 3.99967627 -2 6 C-3.65 6 -5.3 6 -7 6 C-6.67 4.35 -6.34 2.7 -6 1 C-3 0 -3 0 0 0 Z " fill="#1AB5CC" transform="translate(271,19)"/>
<path d="M0 0 C3.96 0.33 7.92 0.66 12 1 C12.33 1.99 12.66 2.98 13 4 C8.38 4 3.76 4 -1 4 C-0.67 2.68 -0.34 1.36 0 0 Z " fill="#218699" transform="translate(306,193)"/>
<path d="M0 0 C-0.33 1.65 -0.66 3.3 -1 5 C-3.375 4.75 -3.375 4.75 -6 4 C-7.3125 1.9375 -7.3125 1.9375 -8 0 C-4.71303767 -0.79953138 -3.28976808 -1.09658936 0 0 Z " fill="#1DAFC6" transform="translate(288,187)"/>
<path d="M0 0 C2.1640625 0.9296875 2.1640625 0.9296875 4 2 C2.73461631 2.84158536 1.46246221 3.67299748 0.1875 4.5 C-0.87404297 5.19609375 -0.87404297 5.19609375 -1.95703125 5.90625 C-4 7 -4 7 -7 7 C-5.9441902 4.21650144 -4.99481748 2.99590854 -2.625 1.125 C-1.75875 0.75375 -0.8925 0.3825 0 0 Z " fill="#1B818F" transform="translate(354,149)"/>
<path d="M0 0 C0.66 0.66 1.32 1.32 2 2 C1.625 4.625 1.625 4.625 1 7 C-0.65 6.67 -2.3 6.34 -4 6 C-4 4.68 -4 3.36 -4 2 C-2.68 1.34 -1.36 0.68 0 0 Z " fill="#14B8D2" transform="translate(399,135)"/>
<path d="M0 0 C1.32 0.66 2.64 1.32 4 2 C3.34 3.98 2.68 5.96 2 8 C0.68 7.01 -0.64 6.02 -2 5 C-1.125 1.125 -1.125 1.125 0 0 Z " fill="#29BBD1" transform="translate(379,87)"/>
<path d="M0 0 C2.125 0.375 2.125 0.375 4 1 C4.33 2.32 4.66 3.64 5 5 C3.35 5.33 1.7 5.66 0 6 C-0.66 4.68 -1.32 3.36 -2 2 C-1.34 1.34 -0.68 0.68 0 0 Z " fill="#19ABC7" transform="translate(346,44)"/>
<path d="M0 0 C0.66 0 1.32 0 2 0 C2 0.66 2 1.32 2 2 C5.63 2.33 9.26 2.66 13 3 C13 3.33 13 3.66 13 4 C12.21625 4.144375 11.4325 4.28875 10.625 4.4375 C8.03578982 4.87798925 8.03578982 4.87798925 6 6 C3.99199544 5.71887936 1.98985949 5.38932033 0 5 C0 3.35 0 1.7 0 0 Z " fill="#2190A2" transform="translate(321,11)"/>
<path d="M0 0 C1.65 0 3.3 0 5 0 C5 1.65 5 3.3 5 5 C2.69 5 0.38 5 -2 5 C-1.34 3.35 -0.68 1.7 0 0 Z " fill="#1EA8BB" transform="translate(370,178)"/>
<path d="M0 0 C0.33 0.66 0.66 1.32 1 2 C2.98 1.67 4.96 1.34 7 1 C6.67 2.32 6.34 3.64 6 5 C4.35 5.33 2.7 5.66 1 6 C-0.0625 4.125 -0.0625 4.125 -1 2 C-0.67 1.34 -0.34 0.68 0 0 Z " fill="#BCBCBC" transform="translate(193,149)"/>
<path d="M0 0 C0.33 0 0.66 0 1 0 C1.33 2.97 1.66 5.94 2 9 C-2.455 9.495 -2.455 9.495 -7 10 C-6.34 8.35 -5.68 6.7 -5 5 C-3.68 5.33 -2.36 5.66 -1 6 C-0.67 4.02 -0.34 2.04 0 0 Z " fill="#CDCDCD" transform="translate(183,145)"/>
<path d="M0 0 C0 1.98 0 3.96 0 6 C-1.65 6.33 -3.3 6.66 -5 7 C-5.33 6.01 -5.66 5.02 -6 4 C-2.17391304 0 -2.17391304 0 0 0 Z " fill="#1AB1C5" transform="translate(382,133)"/>
<path d="M0 0 C1.65 0 3.3 0 5 0 C4.67 1.65 4.34 3.3 4 5 C3.01 5.33 2.02 5.66 1 6 C0.34 5.67 -0.32 5.34 -1 5 C-0.67 3.35 -0.34 1.7 0 0 Z " fill="#32C4D8" transform="translate(280,51)"/>
<path d="M0 0 C2.31 0.33 4.62 0.66 7 1 C6.67 2.65 6.34 4.3 6 6 C4.125 5.8125 4.125 5.8125 2 5 C0.75 2.4375 0.75 2.4375 0 0 Z " fill="#19B4CB" transform="translate(364,48)"/>
<path d="M0 0 C1.65 0 3.3 0 5 0 C4.67 1.65 4.34 3.3 4 5 C2.02 5 0.04 5 -2 5 C-1.34 3.35 -0.68 1.7 0 0 Z " fill="#20B7C8" transform="translate(360,164)"/>
<path d="M0 0 C0.33 0.99 0.66 1.98 1 3 C1.66 3.33 2.32 3.66 3 4 C2.34 4 1.68 4 1 4 C1 4.66 1 5.32 1 6 C-0.96147874 7.38938077 -2.96166576 8.7260411 -5 10 C-5.33 9.01 -5.66 8.02 -6 7 C-4.78515625 5.17578125 -4.78515625 5.17578125 -3.0625 3.3125 C-2.49660156 2.68988281 -1.93070312 2.06726563 -1.34765625 1.42578125 C-0.90292969 0.95527344 -0.45820313 0.48476562 0 0 Z " fill="#197E89" transform="translate(368,147)"/>
<path d="M0 0 C2.125 0.9375 2.125 0.9375 4 2 C4 3.32 4 4.64 4 6 C1.03 5.505 1.03 5.505 -2 5 C-2 3.68 -2 2.36 -2 1 C-1.34 0.67 -0.68 0.34 0 0 Z " fill="#22B6CC" transform="translate(281,145)"/>
<path d="M0 0 C0.8353125 0.37125 0.8353125 0.37125 1.6875 0.75 C1.3575 2.07 1.0275 3.39 0.6875 4.75 C0.6875 3.76 0.6875 2.77 0.6875 1.75 C-1.64325929 2.70865509 -1.64325929 2.70865509 -3.3125 5.75 C-3.9725 5.42 -4.6325 5.09 -5.3125 4.75 C-5.9725 6.07 -6.6325 7.39 -7.3125 8.75 C-7.625 6.5 -7.625 6.5 -7.3125 3.75 C-3.41056452 -0.36870968 -3.41056452 -0.36870968 0 0 Z " fill="#C7C7C7" transform="translate(180.3125,143.25)"/>
<path d="M0 0 C2.0625 0.4375 2.0625 0.4375 4 1 C4 2.32 4 3.64 4 5 C2.35 5.33 0.7 5.66 -1 6 C-1.042721 4.33388095 -1.04063832 2.66617115 -1 1 C-0.67 0.67 -0.34 0.34 0 0 Z " fill="#1FB1C7" transform="translate(371,128)"/>
<path d="M0 0 C1.65 0 3.3 0 5 0 C3 3 3 3 0.3984375 3.73046875 C-1.09816406 3.95669922 -1.09816406 3.95669922 -2.625 4.1875 C-3.62789063 4.34605469 -4.63078125 4.50460938 -5.6640625 4.66796875 C-6.82035156 4.83232422 -6.82035156 4.83232422 -8 5 C-7.67 4.01 -7.34 3.02 -7 2 C-4.69 2 -2.38 2 0 2 C0 1.34 0 0.68 0 0 Z " fill="#2797AD" transform="translate(394,77)"/>
<path d="M0 0 C0.99 0 1.98 0 3 0 C3 0.66 3 1.32 3 2 C3.66 2 4.32 2 5 2 C4.67 3.65 4.34 5.3 4 7 C2.68 6.67 1.36 6.34 0 6 C0 4.02 0 2.04 0 0 Z " fill="#29BED3" transform="translate(375,77)"/>
<path d="M0 0 C-0.33 1.32 -0.66 2.64 -1 4 C-2.32 4.33 -3.64 4.66 -5 5 C-5.33 3.35 -5.66 1.7 -6 0 C-3.50907189 -1.24546405 -2.58919267 -0.7767578 0 0 Z " fill="#1DBAD0" transform="translate(271,41)"/>
<path d="M0 0 C-0.33 1.65 -0.66 3.3 -1 5 C-2.875 4.6875 -2.875 4.6875 -5 4 C-5.66 3.01 -6.32 2.02 -7 1 C-3.375 -1.125 -3.375 -1.125 0 0 Z " fill="#14BBCE" transform="translate(338,40)"/>
<path d="M0 0 C1.67542976 0.28604898 3.34385343 0.61781233 5 1 C4.67 2.32 4.34 3.64 4 5 C2.02 5 0.04 5 -2 5 C-1.125 1.125 -1.125 1.125 0 0 Z " fill="#19B6D3" transform="translate(292,25)"/>
<path d="M0 0 C0 2.31 0 4.62 0 7 C-1.65 7 -3.3 7 -5 7 C-5.33 6.01 -5.66 5.02 -6 4 C-1.125 0 -1.125 0 0 0 Z " fill="#19B6CB" transform="translate(362,18)"/>
<path d="M0 0 C0 0.66 0 1.32 0 2 C-3.06246747 3.78409802 -5.22079273 4.22880021 -8.75 4.125 C-9.54921875 4.10695312 -10.3484375 4.08890625 -11.171875 4.0703125 C-11.77515625 4.04710937 -12.3784375 4.02390625 -13 4 C-12.67 3.34 -12.34 2.68 -12 2 C-10.34385343 1.61781233 -8.67542976 1.28604898 -7 1 C-4.53721199 -0.231394 -2.7204945 -0.07159196 0 0 Z " fill="#2799B1" transform="translate(355,189)"/>
<path d="M0 0 C0.625 1.875 0.625 1.875 1 4 C0.34 4.66 -0.32 5.32 -1 6 C-3.125 5.625 -3.125 5.625 -5 5 C-5 3.68 -5 2.36 -5 1 C-3 0 -3 0 0 0 Z " fill="#28BCD0" transform="translate(380,117)"/>
<path d="M0 0 C0.66 0.33 1.32 0.66 2 1 C2 6.28 2 11.56 2 17 C1.67 17 1.34 17 1 17 C0.67 13.04 0.34 9.08 0 5 C-0.66 5.99 -1.32 6.98 -2 8 C-1.125 1.125 -1.125 1.125 0 0 Z " fill="#E1E1E1" transform="translate(85,64)"/>
<path d="M0 0 C1.98 0 3.96 0 6 0 C5.34 1.65 4.68 3.3 4 5 C2.35 4.67 0.7 4.34 -1 4 C-0.67 2.68 -0.34 1.36 0 0 Z " fill="#1EB4CC" transform="translate(283,39)"/>
<path d="M0 0 C1.67542976 0.28604898 3.34385343 0.61781233 5 1 C4.67 2.32 4.34 3.64 4 5 C2.68 5.33 1.36 5.66 0 6 C-0.38218767 4.34385343 -0.71395102 2.67542976 -1 1 C-0.67 0.67 -0.34 0.34 0 0 Z " fill="#19B2C7" transform="translate(353,29)"/>
<path d="M0 0 C-0.33 1.65 -0.66 3.3 -1 5 C-2.65 4.67 -4.3 4.34 -6 4 C-6.33 3.01 -6.66 2.02 -7 1 C-4.53721199 -0.231394 -2.7204945 -0.07159196 0 0 Z " fill="#1BB7CC" transform="translate(313,13)"/>
<path d="M0 0 C4.21912747 0.4794463 6.79663178 1.16625119 10 4 C9.67 4.66 9.34 5.32 9 6 C4.64464931 4.83857315 2.35380297 3.92300495 0 0 Z " fill="#2193A7" transform="translate(272,183)"/>
<path d="M0 0 C3.875 0.875 3.875 0.875 5 2 C5.04063832 3.66617115 5.042721 5.33388095 5 7 C4.67 6.34 4.34 5.68 4 5 C1.47266765 4.34444881 1.47266765 4.34444881 -1 4 C-0.67 2.68 -0.34 1.36 0 0 Z " fill="#29B7D1" transform="translate(376,60)"/>
<path d="M0 0 C1.65 0.33 3.3 0.66 5 1 C4.6875 2.9375 4.6875 2.9375 4 5 C3.01 5.33 2.02 5.66 1 6 C0.34 5.67 -0.32 5.34 -1 5 C-0.67 3.35 -0.34 1.7 0 0 Z " fill="#16BDD4" transform="translate(318,29)"/>
<path d="M0 0 C-0.33 1.32 -0.66 2.64 -1 4 C-3.97 3.505 -3.97 3.505 -7 3 C-6.67 2.01 -6.34 1.02 -6 0 C-3.50907189 -1.24546405 -2.58919267 -0.7767578 0 0 Z " fill="#1DB4D2" transform="translate(307,6)"/>
<path d="M0 0 C2.0625 0.4375 2.0625 0.4375 4 1 C3.67 1.66 3.34 2.32 3 3 C-2.94 3 -8.88 3 -15 3 C-15 2.67 -15 2.34 -15 2 C-14.00097656 1.93941406 -13.00195312 1.87882812 -11.97265625 1.81640625 C-10.68230469 1.73261719 -9.39195313 1.64882812 -8.0625 1.5625 C-6.77472656 1.48128906 -5.48695312 1.40007812 -4.16015625 1.31640625 C-1.13976043 1.35080812 -1.13976043 1.35080812 0 0 Z " fill="#D1D1D1" transform="translate(65,117)"/>
<path d="M0 0 C0.66 0 1.32 0 2 0 C4.30143236 3.45214853 4.13833854 4.23479324 3.625 8.1875 C3.51414062 9.08855469 3.40328125 9.98960938 3.2890625 10.91796875 C3.19367188 11.60503906 3.09828125 12.29210937 3 13 C2.01 12.67 1.02 12.34 0 12 C0 8.04 0 4.08 0 0 Z " fill="#197788" transform="translate(386,107)"/>
<path d="M0 0 C0.66 0 1.32 0 2 0 C6.06153846 6.4 6.06153846 6.4 5.75 9.4375 C5.5025 9.953125 5.255 10.46875 5 11 C4.67 9.68 4.34 8.36 4 7 C3.34 7 2.68 7 2 7 C0 4 0 4 0 0 Z " fill="#1F91A2" transform="translate(401,51)"/>
<path d="M0 0 C1.37562854 1.28965176 2.70766393 2.62689293 4 4 C4 4.66 4 5.32 4 6 C2.35 6 0.7 6 -1 6 C-1.625 4.125 -1.625 4.125 -2 2 C-1.34 1.34 -0.68 0.68 0 0 Z " fill="#20B7D3" transform="translate(259,171)"/>
<path d="M0 0 C1.32 0 2.64 0 4 0 C4 1.65 4 3.3 4 5 C2.35 5 0.7 5 -1 5 C-1.33 4.01 -1.66 3.02 -2 2 C-1.34 1.34 -0.68 0.68 0 0 Z " fill="#21B0CD" transform="translate(371,156)"/>
<path d="M0 0 C0.66 0 1.32 0 2 0 C1.67 3.3 1.34 6.6 1 10 C0.34 10 -0.32 10 -1 10 C-1.02689216 8.52093108 -1.04634621 7.04172517 -1.0625 5.5625 C-1.07410156 4.73878906 -1.08570312 3.91507813 -1.09765625 3.06640625 C-1 1 -1 1 0 0 Z " fill="#DCDCDC" transform="translate(111,133)"/>
<path d="M0 0 C1.67542976 0.28604898 3.34385343 0.61781233 5 1 C4.67 2.32 4.34 3.64 4 5 C2.68 5 1.36 5 0 5 C-0.5625 3.0625 -0.5625 3.0625 -1 1 C-0.67 0.67 -0.34 0.34 0 0 Z " fill="#15B4CE" transform="translate(391,38)"/>
<path d="M0 0 C5.28 0 10.56 0 16 0 C16 0.99 16 1.98 16 3 C14.35 3 12.7 3 11 3 C11 2.34 11 1.68 11 1 C7.37 1 3.74 1 0 1 C0 0.67 0 0.34 0 0 Z " fill="#279AAE" transform="translate(316,40)"/>
<path d="M0 0 C1.258125 0.226875 2.51625 0.45375 3.8125 0.6875 C3.1525 1.3475 2.4925 2.0075 1.8125 2.6875 C1.1699765 4.75624034 1.1699765 4.75624034 0.8125 6.6875 C0.8125 5.6975 0.8125 4.7075 0.8125 3.6875 C-1.8275 3.3575 -4.4675 3.0275 -7.1875 2.6875 C-5.15110924 -0.49436057 -3.4972064 -0.45804119 0 0 Z " fill="#187F8C" transform="translate(313.1875,159.3125)"/>
<path d="M0 0 C0.33 1.32 0.66 2.64 1 4 C-0.32 4 -1.64 4 -3 4 C-3.33 5.32 -3.66 6.64 -4 8 C-4.33 7.01 -4.66 6.02 -5 5 C-5.99 5.495 -5.99 5.495 -7 6 C-6.3125 3.5625 -6.3125 3.5625 -5 1 C-2.375 0.1875 -2.375 0.1875 0 0 Z " fill="#D6D6D6" transform="translate(52,142)"/>
<path d="M0 0 C0.99 0.33 1.98 0.66 3 1 C2.67 4.3 2.34 7.6 2 11 C-1 8 -1 8 -1.25 4.9375 C-1 2 -1 2 0 0 Z " fill="#CFCFCF" transform="translate(171,133)"/>
<path d="M0 0 C3.96 1.98 3.96 1.98 8 4 C6.02 4.99 6.02 4.99 4 6 C1.25 4.625 1.25 4.625 -1 3 C-0.67 2.01 -0.34 1.02 0 0 Z " fill="#198395" transform="translate(367,17)"/>
<path d="M0 0 C0.99 0 1.98 0 3 0 C3.33 1.65 3.66 3.3 4 5 C2.68 5 1.36 5 0 5 C-0.5625 3.0625 -0.5625 3.0625 -1 1 C-0.67 0.67 -0.34 0.34 0 0 Z " fill="#1CB5CB" transform="translate(325,167)"/>
<path d="M0 0 C1.98 0.495 1.98 0.495 4 1 C4 2.32 4 3.64 4 5 C2.35 5 0.7 5 -1 5 C-0.67 3.35 -0.34 1.7 0 0 Z " fill="#1DBDDC" transform="translate(258,160)"/>
<path d="M0 0 C1.32 0 2.64 0 4 0 C4 1.65 4 3.3 4 5 C2.35 4.67 0.7 4.34 -1 4 C-0.67 2.68 -0.34 1.36 0 0 Z " fill="#1CBCDA" transform="translate(269,159)"/>
<path d="M0 0 C-0.125 1.875 -0.125 1.875 -1 4 C-4.0625 5.25 -4.0625 5.25 -7 6 C-7 4.68 -7 3.36 -7 2 C-2.25 0 -2.25 0 0 0 Z " fill="#1C8395" transform="translate(345,155)"/>
<path d="M0 0 C3 4 3 4 2.6875 7.75 C2.460625 8.8225 2.23375 9.895 2 11 C1.01 10.67 0.02 10.34 -1 10 C-0.67 6.7 -0.34 3.4 0 0 Z " fill="#C6C6C6" transform="translate(159,144)"/>
<path d="M0 0 C1.65 0 3.3 0 5 0 C5 2.97 5 5.94 5 9 C4.34 9 3.68 9 3 9 C2.87625 7.88625 2.7525 6.7725 2.625 5.625 C2.3534187 1.96896323 2.3534187 1.96896323 0 0 Z " fill="#F1F1F1" transform="translate(118,145)"/>
<path d="M0 0 C0.66 0 1.32 0 2 0 C2 2.31 2 4.62 2 7 C1.34 7 0.68 7 0 7 C-0.33 7.99 -0.66 8.98 -1 10 C-1.02689216 8.52093108 -1.04634621 7.04172517 -1.0625 5.5625 C-1.07410156 4.73878906 -1.08570313 3.91507813 -1.09765625 3.06640625 C-1 1 -1 1 0 0 Z " fill="#E7E7E7" transform="translate(162,133)"/>
<path d="M0 0 C1.65 0.33 3.3 0.66 5 1 C5 1.99 5 2.98 5 4 C2 5 2 5 -1 4 C-0.67 2.68 -0.34 1.36 0 0 Z " fill="#20B0C9" transform="translate(395,85)"/>
<path d="M0 0 C3.96 0 7.92 0 12 0 C12 0.33 12 0.66 12 1 C9.36 1 6.72 1 4 1 C3.67 1.99 3.34 2.98 3 4 C1.68 3.67 0.36 3.34 -1 3 C-0.67 2.01 -0.34 1.02 0 0 Z " fill="#D8D8D8" transform="translate(29,81)"/>
<path d="M0 0 C0.0825 0.61875 0.165 1.2375 0.25 1.875 C0.81258459 4.18437567 0.81258459 4.18437567 3.0625 5.25 C3.701875 5.4975 4.34125 5.745 5 6 C5 6.66 5 7.32 5 8 C1.64404172 7.40072174 -0.37801226 6.15377564 -3 4 C-2.01 4 -1.02 4 0 4 C0 2.68 0 1.36 0 0 Z " fill="#1D9BB2" transform="translate(262,161)"/>
<path d="M0 0 C0.75 1.75 0.75 1.75 1 4 C-0.9375 6.25 -0.9375 6.25 -3 8 C-3.66 7.34 -4.32 6.68 -5 6 C-2.25 1.125 -2.25 1.125 0 0 Z " fill="#1C8191" transform="translate(388,138)"/>
<path d="M0 0 C3.96 0 7.92 0 12 0 C12 0.33 12 0.66 12 1 C10.72125 1.12375 9.4425 1.2475 8.125 1.375 C4.65209064 1.69042399 4.65209064 1.69042399 2 4 C1.01 3.67 0.02 3.34 -1 3 C-0.67 2.01 -0.34 1.02 0 0 Z " fill="#D3D3D3" transform="translate(163,81)"/>
<path d="M0 0 C2.34058637 2.12780579 3.70700306 4.11562221 5 7 C3.68 7.33 2.36 7.66 1 8 C-0.42944945 5.64561267 -1.08661261 4.51967567 -0.625 1.75 C-0.41875 1.1725 -0.2125 0.595 0 0 Z " fill="#177A8A" transform="translate(388,61)"/>
<path d="M0 0 C0 0.66 0 1.32 0 2 C-2.64 2.33 -5.28 2.66 -8 3 C-8.33 2.01 -8.66 1.02 -9 0 C-5.62182575 -0.84454356 -3.32534757 -1.10844919 0 0 Z " fill="#1A7E8B" transform="translate(341,176)"/>
<path d="M0 0 C1.32 0.66 2.64 1.32 4 2 C3.34 2 2.68 2 2 2 C1.71125 2.639375 1.4225 3.27875 1.125 3.9375 C0 6 0 6 -2 7 C-2 6.34 -2 5.68 -2 5 C-2.66 4.67 -3.32 4.34 -4 4 C-2.68 2.68 -1.36 1.36 0 0 Z " fill="#1B8492" transform="translate(377,151)"/>
<path d="M0 0 C1.98 0.66 3.96 1.32 6 2 C5.01 2.495 5.01 2.495 4 3 C4 4.65 4 6.3 4 8 C3.34 8 2.68 8 2 8 C2.33 6.68 2.66 5.36 3 4 C1.68 3.67 0.36 3.34 -1 3 C-0.67 2.01 -0.34 1.02 0 0 Z " fill="#D0D0D0" transform="translate(189,143)"/>
<path d="M0 0 C3.465 1.98 3.465 1.98 7 4 C6.01 4.495 6.01 4.495 5 5 C4.67 5.66 4.34 6.32 4 7 C2.35 5.35 0.7 3.7 -1 2 C-0.67 1.34 -0.34 0.68 0 0 Z " fill="#1E859A" transform="translate(351,47)"/>
<path d="M0 0 C2 1 2 1 3 3 C0.625 4.5625 0.625 4.5625 -2 6 C-4 5 -4 5 -5 3 C-2.625 1.4375 -2.625 1.4375 0 0 Z " fill="#1A8798" transform="translate(367,181)"/>
<path d="M0 0 C0 0.66 0 1.32 0 2 C-4.625 4.125 -4.625 4.125 -8 3 C-8 2.34 -8 1.68 -8 1 C-5.07175348 0.02391783 -3.04386724 -0.08226668 0 0 Z " fill="#2391A4" transform="translate(346,165)"/>
<path d="M0 0 C0.33 0.66 0.66 1.32 1 2 C1.66 2.33 2.32 2.66 3 3 C1.625 5.5 1.625 5.5 0 8 C-0.66 8 -1.32 8 -2 8 C-1.125 2.25 -1.125 2.25 0 0 Z " fill="#218B96" transform="translate(402,145)"/>
<path d="M0 0 C4 4.75 4 4.75 4 7 C2.68 7 1.36 7 0 7 C-0.66 5.02 -1.32 3.04 -2 1 C-1.34 0.67 -0.68 0.34 0 0 Z " fill="#19899A" transform="translate(286,15)"/>
<path d="M0 0 C2.31 0 4.62 0 7 0 C7 0.99 7 1.98 7 3 C5.02 3 3.04 3 1 3 C0.67 2.01 0.34 1.02 0 0 Z " fill="#218896" transform="translate(322,194)"/>
<path d="M0 0 C1.65 1.32 3.3 2.64 5 4 C4.67 4.99 4.34 5.98 4 7 C3.34 7 2.68 7 2 7 C2 6.01 2 5.02 2 4 C1.01 3.67 0.02 3.34 -1 3 C-0.67 2.01 -0.34 1.02 0 0 Z " fill="#238999" transform="translate(367,143)"/>
<path d="M0 0 C2.31 0.33 4.62 0.66 7 1 C7 2.32 7 3.64 7 5 C3.34683329 3.75023244 2.21934164 3.32901247 0 0 Z " fill="#CBCBCB" transform="translate(99,133)"/>
<path d="M0 0 C1.32 0.33 2.64 0.66 4 1 C4 2.32 4 3.64 4 5 C2.68 5 1.36 5 0 5 C0 3.35 0 1.7 0 0 Z " fill="#1ABED1" transform="translate(409,128)"/>
<path d="M0 0 C0.33 0 0.66 0 1 0 C1.144375 1.0725 1.28875 2.145 1.4375 3.25 C1.83749442 5.91662949 2.27591924 8.41399729 3 11 C2.01 11.33 1.02 11.66 0 12 C0 8.04 0 4.08 0 0 Z " fill="#176173" transform="translate(413,87)"/>
<path d="M0 0 C0.66 0.33 1.32 0.66 2 1 C2 1.99 2 2.98 2 4 C0 5.6875 0 5.6875 -2 7 C-2.66 6.67 -3.32 6.34 -4 6 C-2.84826645 3.53199953 -1.95216435 1.95216435 0 0 Z " fill="#D8D8D8" transform="translate(302,82)"/>
<path d="M0 0 C-1.1875 1.5625 -1.1875 1.5625 -3 3 C-5.6875 2.6875 -5.6875 2.6875 -8 2 C-5.14066998 -0.85933002 -3.8625627 -1.2875209 0 0 Z " fill="#C5C5C5" transform="translate(86,152)"/>
<path d="M0 0 C0.66 0 1.32 0 2 0 C3.125 3.75 3.125 3.75 2 6 C1.34 6 0.68 6 0 6 C-0.66 4.68 -1.32 3.36 -2 2 C-1.34 1.34 -0.68 0.68 0 0 Z " fill="#909090" transform="translate(116,145)"/>
<path d="M0 0 C0.66 0.33 1.32 0.66 2 1 C2 4 2 4 0.5 5.6875 C0.005 6.120625 -0.49 6.55375 -1 7 C-1.625 4.625 -1.625 4.625 -2 2 C-1.34 1.34 -0.68 0.68 0 0 Z " fill="#D5D5D5" transform="translate(45,83)"/>
<path d="M0 0 C1.65 0 3.3 0 5 0 C5 0.99 5 1.98 5 3 C3.35 3.33 1.7 3.66 0 4 C-0.33 3.34 -0.66 2.68 -1 2 C-0.67 1.34 -0.34 0.68 0 0 Z " fill="#D5D5D5" transform="translate(87,81)"/>
<path d="M0 0 C-0.33 1.32 -0.66 2.64 -1 4 C-2.65 4 -4.3 4 -6 4 C-6 3.01 -6 2.02 -6 1 C-3 0 -3 0 0 0 Z " fill="#278C9C" transform="translate(404,75)"/>
<path d="M0 0 C0.66 0.33 1.32 0.66 2 1 C2.59355614 3.64860427 2.74209269 6.29197322 3 9 C2.67 8.34 2.34 7.68 2 7 C1.34 7 0.68 7 0 7 C-0.93423645 3.98968256 -1.04449911 3.13349732 0 0 Z " fill="#2B8B99" transform="translate(383,70)"/>
<path d="M0 0 C0.33 0 0.66 0 1 0 C1 1.65 1 3.3 1 5 C-0.65 5 -2.3 5 -4 5 C-4.33 4.01 -4.66 3.02 -5 2 C-3.35 2 -1.7 2 0 2 C0 1.34 0 0.68 0 0 Z " fill="#128C96" transform="translate(344,23)"/>
<path d="M0 0 C1.98 0 3.96 0 6 0 C5.67 0.99 5.34 1.98 5 3 C3.35 3 1.7 3 0 3 C0 2.01 0 1.02 0 0 Z " fill="#228A96" transform="translate(321,186)"/>
<path d="M0 0 C0.66 0 1.32 0 2 0 C2.125 4.75 2.125 4.75 1 7 C0.34 7 -0.32 7 -1 7 C-1.04254356 5.00045254 -1.04080783 2.99958364 -1 1 C-0.67 0.67 -0.34 0.34 0 0 Z " fill="#F4F4F4" transform="translate(79,146)"/>
<path d="M0 0 C1.5625 1.125 1.5625 1.125 3 3 C2.6875 6.1875 2.6875 6.1875 2 9 C0.9375 7.125 0.9375 7.125 0 5 C0.33 4.34 0.66 3.68 1 3 C-0.32 2.67 -1.64 2.34 -3 2 C-2.01 2 -1.02 2 0 2 C0 1.34 0 0.68 0 0 Z " fill="#C3C3C3" transform="translate(76,144)"/>
<path d="M0 0 C0.625 1.8125 0.625 1.8125 1 4 C0.01 5.485 0.01 5.485 -1 7 C-1.66 7 -2.32 7 -3 7 C-2.67 5.35 -2.34 3.7 -2 2 C-1.34 2 -0.68 2 0 2 C0 1.34 0 0.68 0 0 Z " fill="#2091A3" transform="translate(406,140)"/>
</svg>
