<?xml version="1.0" encoding="UTF-8"?>
<svg version="1.1" xmlns="http://www.w3.org/2000/svg" width="500" height="500">
<path d="M0 0 C165 0 330 0 500 0 C500 165 500 330 500 500 C335 500 170 500 0 500 C0 335 0 170 0 0 Z " fill="#FEFEFF" transform="translate(0,0)"/>
<path d="M0 0 C74.58 0 149.16 0 226 0 C226 12.37167478 226 12.37167478 223.7890625 17.1953125 C223.29575439 18.30108643 222.80244629 19.40686035 222.29418945 20.54614258 C221.74335693 21.72716553 221.19252441 22.90818848 220.625 24.125 C220.03976376 25.42050032 219.45674476 26.71700413 218.87573242 28.0144043 C217.60909707 30.83742902 216.33237431 33.65559484 215.04931641 36.47119141 C212.91243348 41.17520645 210.83190069 45.90303534 208.76171875 50.63671875 C208.4009021 51.46175903 208.04008545 52.28679932 207.66833496 53.13684082 C206.92667734 54.83333251 206.18516278 56.52988675 205.44378662 58.22650146 C203.52702009 62.6080219 201.60113884 66.98553084 199.67578125 71.36328125 C195.48716107 80.89024486 191.30287546 90.41910639 187.1199646 99.94857788 C185.24683611 104.21580334 183.3734023 108.48289475 181.5 112.75 C180.74999854 114.45833269 179.99999854 116.16666603 179.25 117.875 C102.75000002 292.12499995 102.75000002 292.12499995 101.62521362 294.68701172 C100.87449988 296.39697193 100.12378781 298.10693286 99.37307739 299.81689453 C97.50901122 304.06284267 95.64491699 308.30877848 93.78076172 312.5546875 C90.27539371 320.53880001 86.77031645 328.52303981 83.26617432 336.50769043 C81.61635668 340.2669732 79.96638722 344.02618931 78.31640625 347.78540039 C77.53215073 349.57231373 76.74796908 351.35925948 75.96386719 353.14624023 C74.87453788 355.62882645 73.78495067 358.11129934 72.6953125 360.59375 C72.37942169 361.31385254 72.06353088 362.03395508 71.73806763 362.77587891 C69.50720324 367.85735408 67.25753647 372.93032114 65 378 C93.57008766 377.58013347 93.57008766 377.58013347 122 375 C122.91458984 374.88317871 123.82917969 374.76635742 124.77148438 374.64599609 C143.27826523 372.19400341 161.67742428 367.65658167 176 355 C177.0828125 354.06220703 177.0828125 354.06220703 178.1875 353.10546875 C202.18913133 330.78576992 206.00356678 292.49709709 211 262 C215.29 262 219.58 262 224 262 C223.38752106 289.35490293 222.27220636 316.66835102 221 344 C220.34 358.52 219.68 373.04 219 388 C139.14 388 59.28 388 -23 388 C-23 370.77881325 -23 370.77881325 -19.4765625 363.7890625 C-19.10400833 362.99006531 -18.73145416 362.19106812 -18.34761047 361.36785889 C-17.13205486 358.77405308 -15.8786252 356.20058828 -14.625 353.625 C-13.75391005 351.77972717 -12.88621686 349.93284746 -12.02172852 348.08447266 C-10.68430116 345.22585847 -9.34493393 342.36836098 -7.99507141 339.51559448 C-3.8362193 330.72179115 0.08660973 321.8340418 3.96051025 312.9118042 C5.8102591 308.6536424 7.67187639 304.40069273 9.53515625 300.1484375 C10.08746918 298.88787033 10.08746918 298.88787033 10.65093994 297.60183716 C14.70269591 288.3721229 18.84915826 279.18546842 23 270 C29.08390395 256.53598214 35.08055821 243.03712622 41 229.5 C47.28438281 215.12829295 53.66616316 200.80435507 60.125 186.51025391 C65.8318635 173.87539681 71.44550404 161.20253438 77 148.5 C82.919444 134.96286873 88.91645134 121.46418136 95 108 C101.88312454 92.76427359 108.64748947 77.4798053 115.35107422 62.16430664 C120.57174942 50.23866355 125.8323981 38.33139811 131.125 26.4375 C131.4774176 25.64549194 131.82983521 24.85348389 132.19293213 24.03747559 C134.1272982 19.69106018 136.0630064 15.34524504 138 11 C131.63614858 10.92275661 125.27242163 10.87091097 118.90820312 10.83520508 C116.75158167 10.82029091 114.59498958 10.79995237 112.43847656 10.77368164 C83.85489056 10.43466702 57.9905479 14.45942812 36.68359375 35.2578125 C25.72259648 46.45813286 18.88842391 59.88418992 15 75 C14.47792969 76.90072266 14.47792969 76.90072266 13.9453125 78.83984375 C11.52813681 87.83528427 10.01117987 96.7397212 9 106 C5.37 106 1.74 106 -2 106 C-2.12211742 83.2654935 -1.99759418 60.54353297 -1.5625 37.8125 C-1.54285187 36.72512543 -1.52320374 35.63775085 -1.50296021 34.51742554 C-1.44511879 31.37219076 -1.3817505 28.22711825 -1.31640625 25.08203125 C-1.29968872 24.16874054 -1.28297119 23.25544983 -1.26574707 22.31448364 C-1.09790721 14.83111453 -0.53542141 7.49589975 0 0 Z " fill="#08DAFF" transform="translate(217,50)"/>
<path d="M0 0 C45.54 0 91.08 0 138 0 C138 3.3 138 6.6 138 10 C128.76 10 119.52 10 110 10 C110 131.44 110 252.88 110 378 C119.24 378 128.48 378 138 378 C138 381.3 138 384.6 138 388 C92.46 388 46.92 388 0 388 C0 384.7 0 381.4 0 378 C8.91 378 17.82 378 27 378 C27 256.56 27 135.12 27 10 C18.09 10 9.18 10 0 10 C0 6.7 0 3.4 0 0 Z " fill="#08DAFF" transform="translate(38,50)"/>
</svg>
